<svg width="149" height="149" viewBox="0 0 149 149" fill="none" xmlns="http://www.w3.org/2000/svg">
<path d="M94 94C105.046 94 114 85.2696 114 74.5C114 63.7304 105.046 55 94 55C82.9543 55 74 63.7304 74 74.5C74 85.2696 82.9543 94 94 94Z" stroke="black" stroke-width="5" stroke-linecap="round" stroke-linejoin="round"/>
<path d="M74 54.9995V15H54.5C49.3283 15 44.3684 17.1071 40.7114 20.8579C37.0545 24.6086 35 29.6957 35 35C35 40.3043 37.0545 45.3914 40.7114 49.1421C44.3684 52.8929 49.3283 55 54.5 55L74 54.9995Z" stroke="black" stroke-width="5" stroke-linecap="round" stroke-linejoin="round"/>
<path d="M74.5 54.4997V93.9995L54.75 94C49.512 94 44.4885 91.9192 40.7846 88.2153C37.0808 84.5114 35 79.4879 35 74.2499C35 69.0118 37.0808 63.9883 40.7846 60.2844C44.4885 56.5805 49.512 54.4997 54.75 54.4997H74.5ZM74.5 54.4997V15H94.25C99.488 15 104.512 17.0808 108.215 20.7847C111.919 24.4885 114 29.5121 114 34.7501C114 39.9882 111.919 45.0117 108.215 48.7156C104.512 52.4194 99.488 54.5003 94.25 54.5003L74.5 54.4997Z" stroke="black" stroke-width="5" stroke-linecap="round" stroke-linejoin="round"/>
<path d="M75 94V114C75.0001 117.956 73.8271 121.822 71.6295 125.111C69.4319 128.4 66.3084 130.964 62.6539 132.478C58.9993 133.991 54.978 134.387 51.0984 133.616C47.2187 132.844 43.655 130.939 40.858 128.142C38.0609 125.345 36.156 121.782 35.3843 117.902C34.6126 114.023 35.0086 110.001 36.5224 106.347C38.0361 102.692 40.5996 99.5687 43.8886 97.3711C47.1776 95.1735 51.0444 94.0005 55 94.0005L75 94Z" stroke="black" stroke-width="5" stroke-linecap="round" stroke-linejoin="round"/>
</svg>
