<svg width="24" height="24" viewBox="0 0 24 24" fill="none" xmlns="http://www.w3.org/2000/svg">
<path d="M23.9839 17.7206L21.3852 4.73412C21.313 4.37649 21.0098 4.0778 20.5915 3.95493C20.1733 3.83406 19.7061 3.90499 19.3723 4.14374L15.4014 6.98577L13.1647 3.43847C12.9617 3.11781 12.563 2.91102 12.1215 2.89804C11.6788 2.88505 11.2643 3.06686 11.0331 3.37554L9.69771 5.15968L6.83852 0.545494C6.60494 0.168887 6.10109 -0.038896 5.59236 0.00605707C5.07873 0.0600007 4.66293 0.371675 4.55287 0.785243L0.0280535 17.7935C-0.115029 18.3319 0.303211 18.8644 0.96359 18.9812C0.996609 18.9872 1.02963 18.9862 1.06265 18.9902C1.06632 18.9912 1.06754 18.9942 1.07121 18.9952L11.411 23.8651C11.5994 23.955 11.8097 24 12.0213 24C12.2341 24 12.4468 23.955 12.6364 23.8641L23.392 18.7445C23.8298 18.5357 24.0658 18.1291 23.9839 17.7206ZM11.9858 5.93387L13.5047 8.34235L12.2341 9.2514L10.9965 7.25549L11.9858 5.93387ZM10.3349 10.611L6.36769 13.45L9.49838 9.26139L10.3349 10.611ZM6.21116 3.95793L8.19963 7.16558L3.78854 13.0664L6.21116 3.95793ZM12.0176 21.8462L3.77265 17.9633L12.7697 11.524C12.7783 11.516 12.7893 11.512 12.7978 11.5041L19.327 6.83193L21.4353 17.3639L12.0176 21.8462Z" fill="black"/>
</svg>
