<svg width="28" height="29" viewBox="0 0 28 29" fill="none" xmlns="http://www.w3.org/2000/svg">
<path fill-rule="evenodd" clip-rule="evenodd" d="M25.5304 0C26.3902 0 27.186 0.45832 27.5892 1.20336C27.9755 1.917 27.9591 2.75796 27.5464 3.45603L27.5323 3.47943L23.9146 9.44113C23.5055 10.1152 22.767 10.536 21.9776 10.545L21.9518 10.5451H17.8207L19.5377 14.4175L19.5446 14.4289L19.5551 14.4472C19.9595 15.1671 19.9496 16.0231 19.5303 16.7324L19.5162 16.756L15.8985 22.7176C15.4893 23.3918 14.7508 23.8125 13.9615 23.8215L13.9357 23.8217L8.8652 23.8216L5.22012 27.609L5.21322 27.616C4.87021 27.9595 4.40676 28.1511 3.92356 28.1511C3.80277 28.1511 3.6819 28.1391 3.56233 28.1151C2.97291 27.9965 2.4832 27.5981 2.24747 27.0486L2.24082 27.0329L0.322582 22.695L0.312492 22.6784L0.302012 22.6605C0.300272 22.6574 0.298502 22.6543 0.296652 22.651C-0.107718 21.9311 -0.0979281 21.0751 0.321372 20.3658L0.335502 20.3422L3.8443 14.56L1.25884 8.72913L1.30622 8.70533L1.3055 8.70183C1.19611 8.16553 1.28417 7.60623 1.56512 7.11633L1.58064 7.08963L1.59498 7.06573L5.2127 1.10398C5.62186 0.42989 6.3604 0.00912 7.1497 0H7.1755H25.5304ZM6.5345 23.7763H2.69069L3.81966 26.349L3.82244 26.3558C3.84115 26.4019 3.87142 26.4271 3.91648 26.4362C3.95667 26.4444 3.98919 26.436 4.01994 26.4084L4.02532 26.4032L6.5345 23.7763ZM17.5229 14.9315H5.90385C5.89102 14.9315 5.87819 14.9319 5.86538 14.9328L5.86186 14.933L9.0477 22.1119H13.9351C14.136 22.1119 14.3296 22.006 14.4396 21.8358L14.4483 21.8219L18.0713 15.8565C18.1794 15.6786 18.1913 15.4721 18.1057 15.2863C18.0069 15.0721 17.7777 14.9315 17.5229 14.9315ZM4.69605 16.4056L1.82063 21.1799C1.70621 21.37 1.69958 21.5925 1.80204 21.7884L1.81291 21.8083L1.8187 21.818L1.8303 21.8367L1.8533 21.8704L1.87897 21.9033L1.90353 21.9309L1.90779 21.9354L1.9244 21.952L1.93883 21.9655C2.02928 22.0464 2.14109 22.0958 2.26441 22.1084L2.29212 22.1108L2.30816 22.1116L2.32848 22.1119H7.2072L4.69605 16.4056ZM3.93994 10.5566L5.20279 13.4098L5.22739 13.4015C5.44548 13.3296 5.6735 13.2907 5.90401 13.2871L5.93861 13.2869L17.2012 13.2868L15.9928 10.5567L3.93994 10.5566ZM25.4983 1.66434H13.8378L17.0246 8.84483H21.9103C22.1116 8.84483 22.3053 8.73873 22.4154 8.56853L22.4241 8.55453L26.0473 2.58932C26.1553 2.41142 26.1673 2.20512 26.0817 2.01949C25.985 1.80965 25.7632 1.67036 25.5146 1.66453L25.4983 1.66434ZM12.0528 1.66434H7.1942C6.9944 1.66434 6.8017 1.77011 6.692 1.94012L6.6833 1.95404L3.06968 7.91933C2.9618 8.09743 2.94987 8.30423 3.03542 8.49023C3.13178 8.69993 3.35237 8.83873 3.59952 8.84463L3.61568 8.84483H15.2312L12.0528 1.66434Z" fill="#252422"/>
</svg>
