<svg width="44" height="44" viewBox="0 0 44 44" fill="none" xmlns="http://www.w3.org/2000/svg">
<path d="M18.4623 37.5886C18.4623 37.3198 18.4031 37.0542 18.289 36.8107C18.1749 36.5673 18.0086 36.3519 17.802 36.1799C17.5954 36.0078 17.3534 35.8834 17.0933 35.8152C16.8332 35.7471 16.5613 35.7371 16.2969 35.7857C13.8969 36.2262 10.8667 36.2924 10.0611 34.0294C9.35853 32.2768 8.19485 30.7469 6.69338 29.6019C6.58626 29.5436 6.48415 29.4766 6.38813 29.4014C6.25673 29.0547 6.02332 28.7561 5.71872 28.5448C5.41411 28.3335 5.05261 28.2196 4.68191 28.2179H4.67296C4.18822 28.2178 3.72316 28.4096 3.37956 28.7516C3.03597 29.0935 2.84182 29.5576 2.83963 30.0423C2.83246 31.5373 4.32646 32.4951 4.93256 32.8192C5.64727 33.5373 6.22167 34.3825 6.62625 35.3114C7.29406 37.1877 9.23481 40.0343 14.8136 39.6674C14.8154 39.7318 14.8172 39.7927 14.8181 39.8482L14.8261 40.3388C14.8261 40.825 15.0193 41.2913 15.3631 41.6351C15.7069 41.9789 16.1732 42.1721 16.6594 42.1721C17.1457 42.1721 17.612 41.9789 17.9558 41.6351C18.2996 41.2913 18.4928 40.825 18.4928 40.3388L18.4838 39.7551C18.4749 39.4077 18.4623 38.9046 18.4623 37.5886ZM38.0185 9.85764C38.0767 9.62847 38.134 9.37424 38.1841 9.08779C38.4806 7.0447 38.2221 4.95947 37.4357 3.05062C37.3365 2.80177 37.1841 2.57763 36.9891 2.39392C36.7941 2.21022 36.5612 2.07138 36.3069 1.98716C35.6543 1.76694 33.2445 1.33367 28.6361 4.27882C24.8054 3.37736 20.8178 3.37736 16.9871 4.27882C12.3975 1.3768 10.0002 1.7706 9.35386 1.97828C9.09328 2.0591 8.85408 2.1972 8.6538 2.38246C8.45352 2.56772 8.29723 2.79545 8.19639 3.04895C7.39394 4.99445 7.13826 7.12221 7.45697 9.20242C7.50174 9.43696 7.55006 9.65361 7.60021 9.85232C6.08142 11.8753 5.27244 14.3428 5.29869 16.8723C5.29374 17.4367 5.31974 18.0009 5.37657 18.5624C5.98891 27.0004 11.4889 29.5338 15.3211 30.4039C15.2415 30.6331 15.169 30.8784 15.1045 31.138C14.9896 31.6097 15.0665 32.1077 15.3183 32.5228C15.57 32.9379 15.9762 33.2363 16.4476 33.3524C16.919 33.4685 17.4172 33.393 17.833 33.1423C18.2488 32.8917 18.5482 32.4863 18.6655 32.0153C18.7822 31.4044 19.0812 30.8432 19.5231 30.4057C19.7904 30.1718 19.9838 29.8652 20.08 29.5233C20.1762 29.1814 20.171 28.819 20.0649 28.48C19.9589 28.141 19.7567 27.8402 19.4828 27.6141C19.2089 27.388 18.8752 27.2463 18.5223 27.2063C12.1898 26.483 9.44069 23.9031 9.02713 18.2259C8.98131 17.7762 8.96069 17.3243 8.96536 16.8724C8.93595 15.0696 9.53155 13.3122 10.651 11.8987C10.7635 11.7514 10.8833 11.6097 11.0099 11.4744C11.2344 11.2232 11.3853 10.9151 11.4461 10.5838C11.5069 10.2525 11.4753 9.91081 11.3546 9.59632C11.2309 9.26545 11.1357 8.92464 11.07 8.57759C10.9206 7.59073 10.9696 6.584 11.2141 5.61631C12.8075 6.06635 14.3071 6.79889 15.6416 7.77906C15.8622 7.92605 16.1119 8.02386 16.3737 8.06588C16.6355 8.10789 16.9033 8.09312 17.1589 8.02256C20.8643 7.01698 24.7707 7.01761 28.4758 8.0244C28.7328 8.09487 29.002 8.1088 29.2648 8.06522C29.5277 8.02164 29.778 7.92159 29.9985 7.77197C31.3267 6.78772 32.82 6.04863 34.4082 5.58951C34.6516 6.53396 34.706 7.51718 34.5684 8.48273C34.502 8.86322 34.3983 9.23623 34.2587 9.59635C34.138 9.91085 34.1064 10.2525 34.1672 10.5838C34.228 10.9151 34.3789 11.2233 34.6033 11.4744C34.7448 11.6338 34.8862 11.8056 35.0133 11.9668C36.1248 13.3563 36.7104 15.0935 36.6668 16.8723C36.6701 17.3483 36.6471 17.8241 36.5978 18.2975C36.1941 23.8995 33.4343 26.4812 27.0722 27.2063C26.7192 27.2465 26.3855 27.3884 26.1117 27.6148C25.8378 27.8411 25.6356 28.1421 25.5297 28.4813C25.4238 28.8204 25.4187 29.183 25.515 29.5249C25.6113 29.8669 25.8049 30.1735 26.0723 30.4075C26.5281 30.8567 26.8278 31.4403 26.9272 32.0725C27.0511 32.5633 27.108 33.0686 27.0964 33.5746V37.8537C27.0784 39.0406 27.0784 39.9304 27.0784 40.3386C27.0784 40.8249 27.2716 41.2912 27.6154 41.635C27.9592 41.9788 28.4255 42.172 28.9118 42.172C29.398 42.172 29.8643 41.9788 30.2081 41.635C30.552 41.2912 30.7451 40.8249 30.7451 40.3386C30.7451 39.9412 30.7451 39.0693 30.763 37.8823V33.5746C30.7778 32.764 30.6823 31.9551 30.4792 31.1702C30.4212 30.9125 30.3501 30.658 30.2662 30.4075C33.0551 29.9442 35.5892 28.5063 37.4173 26.3496C39.2454 24.193 40.249 21.4577 40.2493 18.6305C40.3097 18.0464 40.3378 17.4595 40.3334 16.8723C40.3741 14.3401 39.5584 11.8683 38.0185 9.85764Z" fill="black"/>
</svg>
