<svg width="32" height="32" viewBox="0 0 32 32" fill="none" xmlns="http://www.w3.org/2000/svg">
<path d="M16 0C7.1731 0 0 7.1731 0 16C0 24.8269 7.1731 32 16 32C24.8269 32 32 24.8269 32 16C32 7.1731 24.8269 0 16 0ZM16 1.3913C24.0747 1.3913 30.6087 7.92533 30.6087 16C30.6087 16.0497 30.6051 16.0986 30.6046 16.1481C30.1597 16.107 29.6456 16.068 28.9918 16.0448C28.0675 16.0121 26.9024 16.0216 25.5815 16.087C25.6305 15.7458 25.6648 15.3999 25.6658 15.0448C25.7331 13.7421 25.2957 12.5235 24.5842 11.447C24.7561 10.8531 24.9577 10.0975 25.0082 9.24049C25.0656 8.2636 24.9813 7.18036 24.197 6.44837L23.9959 6.26087H23.7215C21.855 6.26087 20.5774 7.04223 19.7962 7.66168C18.6682 7.22506 17.3998 6.95652 16 6.95652C14.5923 6.95652 13.3117 7.22881 12.1372 7.6644C11.3565 7.04465 10.0778 6.26087 8.20924 6.26087H7.93614L7.73505 6.44701C6.9711 7.1564 6.90072 8.20992 6.94837 9.18207C6.99039 10.0393 7.18034 10.8189 7.34918 11.4416C6.62573 12.539 6.19158 13.7892 6.19158 15.0258C6.19158 15.3817 6.22467 15.7287 6.2731 16.0707C5.01692 16.0124 3.89711 16.0012 3.00815 16.0326C2.35444 16.0557 1.84031 16.0944 1.39538 16.1359C1.39497 16.0904 1.3913 16.0456 1.3913 16C1.3913 7.92533 7.92533 1.3913 16 1.3913ZM8.62364 7.74321C10.0272 7.8762 11.0831 8.50294 11.572 8.9375L11.8981 9.22554L12.3003 9.06114C13.4004 8.60814 14.6275 8.34783 16 8.34783C17.3725 8.34783 18.5999 8.60944 19.6168 9.05435L20.0245 9.2337L20.3573 8.9375C20.8464 8.50279 21.9041 7.87586 23.3084 7.74321C23.4951 8.05276 23.6574 8.49299 23.6182 9.15897C23.5713 9.95599 23.3581 10.8241 23.197 11.3397L23.0924 11.6753L23.3003 11.9592C23.9886 12.8979 24.3396 13.9137 24.2799 14.9878L24.2785 15.0068V15.0258C24.2785 16.7618 23.6534 18.1512 22.322 19.1807C20.9906 20.2102 18.8888 20.8696 15.9307 20.8696C12.9726 20.8696 10.8694 20.2102 9.53804 19.1807C8.20664 18.1512 7.58288 16.7618 7.58288 15.0258C7.58288 14.0069 7.95082 12.886 8.63043 11.9592L8.83424 11.6821L8.73641 11.3519C8.57521 10.8038 8.37762 9.9159 8.33832 9.11413C8.30563 8.44726 8.46346 8.02576 8.62364 7.74321ZM4.7894 16.7106C5.28101 16.7169 5.84449 16.7434 6.40897 16.7717C6.4629 16.9886 6.5244 17.202 6.59918 17.4103C4.29842 17.4588 2.5772 17.6902 1.5163 17.8886C1.47145 17.5405 1.43572 17.1896 1.41576 16.8342C2.1998 16.7598 3.30504 16.6916 4.7894 16.7106ZM27.2106 16.7215C28.6939 16.7026 29.7988 16.7709 30.5829 16.8451C30.5629 17.1954 30.5278 17.5413 30.4837 17.8845C29.3849 17.6829 27.6172 17.4516 25.2568 17.4144C25.33 17.2102 25.391 17.0005 25.4443 16.788C26.067 16.7547 26.6745 16.7283 27.2106 16.7215ZM6.89538 18.1005C7.3105 18.9324 7.90366 19.6751 8.6875 20.2812C9.75918 21.1099 11.1524 21.6889 12.8533 21.9986C12.6307 22.2273 12.4284 22.4783 12.2486 22.7432L12.2065 22.7065C12.2103 22.7021 11.8607 22.8771 11.3383 22.9239C10.8159 22.9707 10.1716 22.9565 9.60054 22.9565C8.74837 22.9565 8.37302 22.5539 7.7731 21.8207C7.44089 21.3729 7.0359 21.0103 6.64266 20.7351C6.24002 20.4532 5.89653 20.2543 5.47147 20.1834L5.4144 20.1739H5.35598C5.03134 20.1739 4.71721 20.1974 4.42391 20.5326C4.27727 20.7002 4.17619 21.0105 4.24185 21.2731C4.3075 21.5357 4.47364 21.6971 4.62228 21.7962C5.57305 22.43 5.74108 23.6845 6.33696 24.8003C6.89342 25.9091 8.09437 26.4348 9.32201 26.4348H11.1304V29.7758C6.23848 28.0491 2.54934 23.7945 1.62228 18.5761C2.68726 18.3755 4.47064 18.1343 6.89538 18.1005ZM24.962 18.106C27.4404 18.1272 29.2738 18.368 30.3791 18.572C29.4533 23.7924 25.7628 28.0486 20.8696 29.7758V26.1562C20.8696 25.0539 20.5076 23.8384 19.8777 22.8247C19.6865 22.517 19.4615 22.2259 19.2106 21.9647C20.8212 21.6465 22.1443 21.0774 23.1739 20.2812C23.9561 19.6765 24.5479 18.9359 24.962 18.106ZM15.0951 22.3302H17.0435C17.6089 22.3302 18.2125 22.7808 18.6957 23.5584C19.1788 24.336 19.4783 25.3803 19.4783 26.1562V30.1902C18.3634 30.4621 17.1992 30.6087 16 30.6087C14.8008 30.6087 13.6366 30.4621 12.5217 30.1902V26.1562C12.5217 25.3975 12.8472 24.3557 13.3628 23.5747C13.8784 22.7938 14.5297 22.3302 15.0951 22.3302ZM7.1712 23.1522C7.77347 23.7769 8.50263 24.3478 9.60054 24.3478C10.1426 24.3478 10.8191 24.3674 11.462 24.3098C11.4642 24.3096 11.4665 24.3086 11.4688 24.3084C11.3841 24.5519 11.3209 24.7969 11.2677 25.0435H9.32201C8.46404 25.0435 7.85793 24.7335 7.5788 24.1753L7.57337 24.1658L7.56929 24.1576C7.45493 23.9452 7.3048 23.5204 7.1712 23.1522Z" fill="black"/>
</svg>
