<svg width="32" height="32" viewBox="0 0 32 32" fill="none" xmlns="http://www.w3.org/2000/svg">
<path d="M15.9887 8.15859e-05C15.8012 0.00296309 15.6222 0.0760557 15.4896 0.203886L15.4755 0.217473L0.629738 14.5246C-0.209913 15.3337 -0.209913 16.6665 0.629738 17.4757L15.4896 31.7963C15.625 31.9267 15.8086 32 16 32C16.1914 32 16.375 31.9267 16.5104 31.7963L16.5245 31.7827L31.3703 17.4757C32.2099 16.6665 32.2099 15.3337 31.3703 14.5246L16.5104 0.203886C16.442 0.13798 16.3606 0.0859789 16.271 0.0509692C16.1814 0.0159595 16.0854 -0.00134539 15.9887 8.15859e-05ZM16.0451 1.72291L30.3495 15.5083C30.6375 15.7858 30.6375 16.2145 30.3495 16.492L18.7154 27.7039C18.8012 27.2991 18.8631 26.8885 18.886 26.4716C18.8873 26.4472 18.8873 26.4227 18.886 26.3982C18.7896 24.6414 18.1201 22.9646 16.9855 21.6007L22.2851 16.492C22.4205 16.3615 22.4965 16.1846 22.4965 16.0001C22.4965 15.8156 22.4205 15.6387 22.2851 15.5083L16.5245 9.95662C15.3528 8.76131 14.6627 7.206 14.5634 5.56531C14.6482 4.16469 15.1672 2.82824 16.0451 1.72291ZM13.2846 4.29628C13.1988 4.70111 13.1369 5.11175 13.114 5.52862C13.1127 5.55306 13.1127 5.57755 13.114 5.60199C13.2105 7.35914 13.881 9.03549 15.0159 10.3996L9.71486 15.5083C9.57954 15.6387 9.50352 15.8156 9.50352 16.0001C9.50352 16.1846 9.57954 16.3615 9.71486 16.492L15.4896 22.0585C16.6525 23.2519 17.3377 24.801 17.4366 26.4349C17.3518 27.8355 16.8328 29.172 15.9549 30.2773L1.65047 16.492C1.36253 16.2145 1.36253 15.7858 1.65047 15.5083L13.2846 4.29628ZM16 11.4186L20.754 16.0001L16 20.5816L11.246 16.0001L16 11.4186Z" fill="black"/>
</svg>
