<svg width="15" height="15" viewBox="0 0 15 15" fill="none" xmlns="http://www.w3.org/2000/svg">
<path d="M14.9953 14.9996V14.999H14.9991V9.49777C14.9991 6.80652 14.4197 4.7334 11.2734 4.7334C9.76094 4.7334 8.74594 5.5634 8.33156 6.35027H8.28781V4.98465H5.30469V14.999H8.41094V10.0403C8.41094 8.73465 8.65844 7.47215 10.2753 7.47215C11.8684 7.47215 11.8922 8.96215 11.8922 10.124V14.9996H14.9953Z" fill="#252422"/>
<path d="M0.25 4.98535H3.36V14.9997H0.25V4.98535Z" fill="#252422"/>
<path d="M1.80125 0C0.806875 0 0 0.806875 0 1.80125C0 2.79562 0.806875 3.61937 1.80125 3.61937C2.79562 3.61937 3.6025 2.79562 3.6025 1.80125C3.60187 0.806875 2.795 0 1.80125 0V0Z" fill="#252422"/>
</svg>
