<svg width="24" height="24" viewBox="0 0 24 24" fill="none" xmlns="http://www.w3.org/2000/svg">
<path fill-rule="evenodd" clip-rule="evenodd" d="M4.875 3.75C4.875 2.09314 6.21814 0.75 7.875 0.75H16.125C17.7819 0.75 19.125 2.09314 19.125 3.75V20.25C19.125 21.9069 17.7819 23.25 16.125 23.25H7.875C6.21814 23.25 4.875 21.9069 4.875 20.25V3.75ZM7.875 2.25C7.04659 2.25 6.375 2.92157 6.375 3.75V20.25C6.375 21.0784 7.04659 21.75 7.875 21.75H16.125C16.9534 21.75 17.625 21.0784 17.625 20.25V3.75C17.625 2.92157 16.9534 2.25 16.125 2.25H7.875Z" fill="white" fill-opacity="0.9"/>
<path d="M12.75 4.5C12.75 4.91422 12.4142 5.25 12 5.25C11.5858 5.25 11.25 4.91422 11.25 4.5C11.25 4.08578 11.5858 3.75 12 3.75C12.4142 3.75 12.75 4.08578 12.75 4.5Z" fill="white"/>
<path d="M13.5 19.875C13.9142 19.875 14.25 19.5392 14.25 19.125C14.25 18.7108 13.9142 18.375 13.5 18.375H10.5C10.0858 18.375 9.75 18.7108 9.75 19.125C9.75 19.5392 10.0858 19.875 10.5 19.875H13.5Z" fill="white"/>
</svg>
