<svg width="32" height="32" viewBox="0 0 32 32" fill="none" xmlns="http://www.w3.org/2000/svg">
<path fill-rule="evenodd" clip-rule="evenodd" d="M22.0093 10.703C22.4106 11.8638 22.6996 13.0488 22.7946 14.277C22.9126 15.8008 22.8586 17.3138 22.5373 18.8125C22.5286 18.8538 22.5101 18.8925 22.4963 18.9325C22.3956 18.9328 22.2928 18.9203 22.1943 18.9355C21.3621 19.0663 20.5306 19.2018 19.6991 19.3365C18.8396 19.4758 17.9788 19.6095 17.1208 19.7583C16.8168 19.8108 16.4406 19.748 16.3178 20.1685C16.3143 20.18 16.2793 20.182 16.2591 20.1885L16.3006 17.6758L16.2583 11.6128L16.6588 11.544C17.3138 11.4368 17.9688 11.328 18.6243 11.2238C19.4066 11.0995 20.1896 10.9788 20.9723 10.8575C21.3176 10.8038 21.6633 10.7545 22.0093 10.703Z" fill="#439934"/>
<path fill-rule="evenodd" clip-rule="evenodd" d="M15.4322 27.5135C15.0097 27.1502 14.5724 26.803 14.1674 26.421C11.9882 24.3655 10.3942 21.9462 9.60919 19.0295C9.39294 18.2267 9.24869 17.411 9.20244 16.5815C9.16994 16.001 9.12294 15.4152 9.16394 14.8377C9.27319 13.3017 9.49519 11.7805 9.94569 10.301L9.97044 10.2665C10.0142 10.3247 10.0772 10.3762 10.0994 10.442C10.5392 11.737 10.9757 13.033 11.4099 14.3297C12.7744 18.4047 14.1372 22.4807 15.5039 26.5547C15.5307 26.6342 15.5999 26.6995 15.6497 26.7712L15.4322 27.5135Z" fill="#45A538"/>
<path fill-rule="evenodd" clip-rule="evenodd" d="M22.0093 10.703C21.6633 10.7545 21.3173 10.8037 20.972 10.857C20.1893 10.9782 19.4063 11.099 18.624 11.2232C17.9685 11.3275 17.3135 11.4362 16.6585 11.5435L16.258 11.6122L16.255 11.351C16.2418 11.1362 16.219 10.9217 16.2165 10.707C16.1993 9.33746 16.1885 7.96796 16.1715 6.59846C16.161 5.74121 16.1453 4.88421 16.1278 4.02721C16.117 3.49471 16.1055 2.96196 16.0815 2.43021C16.0685 2.14446 16.0225 1.86021 16.0038 1.57446C15.9933 1.41021 16.0078 1.24471 16.011 1.07971C16.2153 1.47546 16.415 1.87421 16.625 2.26696C16.9568 2.88796 17.4853 3.34546 17.961 3.84471C19.8418 5.81771 21.177 8.11171 22.0093 10.703Z" fill="#46A037"/>
<path fill-rule="evenodd" clip-rule="evenodd" d="M16.2589 20.1883C16.2791 20.1818 16.3144 20.1798 16.3176 20.1683C16.4404 19.7478 16.8166 19.8106 17.1206 19.7581C17.9786 19.6096 18.8394 19.4756 19.6989 19.3363C20.5304 19.2016 21.3619 19.0661 22.1941 18.9353C22.2926 18.9198 22.3954 18.9326 22.4961 18.9323C22.3406 19.4873 22.2181 20.0543 22.0209 20.5941C21.7969 21.2063 21.5259 21.8038 21.2381 22.3896C20.8073 23.2632 20.2742 24.0826 19.6499 24.8303C19.1701 25.4073 18.6354 25.9406 18.0994 26.4673C17.8031 26.7586 17.4539 26.9958 17.1289 27.2576L17.0446 27.2001L16.7411 26.9406L16.4271 26.2523C16.2126 25.4494 16.0956 24.6237 16.0786 23.7928L16.0844 23.6526L16.1271 23.0461C16.1414 22.8391 16.1604 22.6323 16.1691 22.4248C16.2014 21.6793 16.2294 20.9338 16.2589 20.1883Z" fill="#409433"/>
<path fill-rule="evenodd" clip-rule="evenodd" d="M16.2591 20.1883C16.2296 20.9338 16.2016 21.6793 16.1698 22.425C16.1611 22.6325 16.1421 22.8393 16.1278 23.0463L15.9366 23.1185C15.5118 21.868 15.0868 20.6308 14.6711 19.3903C13.9836 17.338 13.3043 15.2825 12.6178 13.2298C12.0633 11.5729 11.505 9.91731 10.9428 8.26303C10.9166 8.18553 10.8411 8.12503 10.7886 8.05653L12.0126 5.80603C12.0546 5.87903 12.1101 5.94728 12.1366 6.02578C12.7035 7.70131 13.2675 9.37781 13.8286 11.0553C14.5576 13.2378 15.2821 15.422 16.0106 17.6048C16.0396 17.692 16.0876 17.7725 16.1333 17.8703L16.3008 17.6753L16.2591 20.1883Z" fill="#4FAA41"/>
<path fill-rule="evenodd" clip-rule="evenodd" d="M10.7887 8.05676C10.8412 8.12526 10.9165 8.18576 10.943 8.26326C11.5051 9.91754 12.0635 11.5731 12.618 13.23C13.3045 15.2828 13.9837 17.3383 14.6712 19.3905C15.0867 20.6308 15.5117 21.8683 15.9367 23.1188L16.128 23.0465L16.0852 23.653L16.0465 23.7928C15.98 24.4568 15.924 25.1223 15.843 25.7848C15.8022 26.1168 15.7157 26.4428 15.65 26.7715C15.6005 26.6998 15.531 26.6345 15.5042 26.555C14.1375 22.4808 12.7747 18.405 11.4102 14.33C10.9761 13.0332 10.5393 11.7373 10.0997 10.4423C10.0775 10.3765 10.0147 10.325 9.9707 10.2668L10.7887 8.05676Z" fill="#4AA73C"/>
<path fill-rule="evenodd" clip-rule="evenodd" d="M16.3005 17.6754L16.133 17.8704C16.0872 17.7727 16.0392 17.6919 16.0102 17.6049C15.282 15.4222 14.5572 13.2379 13.8282 11.0554C13.2671 9.37797 12.7031 7.70147 12.1362 6.02594C12.11 5.94744 12.0545 5.87894 12.0122 5.80619L13.526 3.81494C13.5737 3.87869 13.6417 3.93544 13.6665 4.00719C14.0867 5.23744 14.5032 6.46919 14.9172 7.70169C15.304 8.85269 15.685 10.0054 16.0762 11.1549C16.1025 11.2319 16.1937 11.2864 16.2547 11.3514L16.2577 11.6127C16.2722 13.6332 16.2865 15.6544 16.3005 17.6754Z" fill="#57AE47"/>
<path fill-rule="evenodd" clip-rule="evenodd" d="M16.2551 11.3511C16.1941 11.2861 16.1029 11.2316 16.0766 11.1546C15.6854 10.0051 15.3044 8.8523 14.9176 7.7013C14.5036 6.4688 14.0871 5.2373 13.6669 4.0068C13.6421 3.93505 13.5741 3.8783 13.5264 3.81455C14.0186 3.33255 14.4956 2.8333 15.0076 2.37355C15.4629 1.96505 15.8289 1.52705 15.8456 0.881552C15.8464 0.854802 15.8604 0.828052 15.8819 0.753052L16.0116 1.07955C16.0084 1.2448 15.9936 1.41005 16.0044 1.5743C16.0231 1.86005 16.0691 2.1443 16.0821 2.43005C16.1061 2.9618 16.1176 3.49455 16.1284 4.02705C16.1456 4.88405 16.1614 5.74105 16.1721 6.5983C16.1889 7.9678 16.1999 9.3373 16.2171 10.7068C16.2191 10.9221 16.2416 11.1363 16.2551 11.3511Z" fill="#60B24F"/>
<path fill-rule="evenodd" clip-rule="evenodd" d="M15.6496 26.7713C15.7154 26.4425 15.8019 26.1163 15.8426 25.7845C15.9239 25.1223 15.9796 24.4565 16.0461 23.7925L16.0626 23.79L16.0791 23.7928C16.0961 24.6236 16.2131 25.4494 16.4276 26.2523C16.3836 26.3103 16.3214 26.362 16.2981 26.4275C16.1164 26.94 15.9451 27.4565 15.7624 27.969C15.7374 28.039 15.6679 28.0935 15.6189 28.155L15.4321 27.5135L15.6496 26.7713Z" fill="#A9AA88"/>
<path fill-rule="evenodd" clip-rule="evenodd" d="M15.6191 28.1552C15.6681 28.0937 15.7379 28.0392 15.7626 27.9692C15.9454 27.4567 16.1169 26.9404 16.2984 26.4277C16.3216 26.3622 16.3836 26.3104 16.4279 26.2524L16.7416 26.9409C16.6796 27.0289 16.5941 27.1082 16.5596 27.2062L15.9586 28.9709C15.9339 29.0417 15.8494 29.0917 15.7929 29.1514L15.6191 28.1552Z" fill="#B6B598"/>
<path fill-rule="evenodd" clip-rule="evenodd" d="M15.793 29.1513C15.8497 29.0918 15.934 29.0415 15.9587 28.9708L16.5597 27.206C16.594 27.1083 16.6797 27.0288 16.7417 26.9408L17.0455 27.2C16.8987 27.345 16.8172 27.5125 16.8662 27.7243L16.774 28.0263C16.732 28.078 16.6712 28.123 16.6505 28.1823C16.4407 28.783 16.2405 29.387 16.0292 29.9878C16.0025 30.064 15.9282 30.1238 15.8757 30.1908C15.8485 29.844 15.8207 29.498 15.793 29.1513Z" fill="#C2C1A7"/>
<path fill-rule="evenodd" clip-rule="evenodd" d="M15.8757 30.1907C15.9279 30.1235 16.0022 30.0637 16.0292 29.9877C16.2404 29.3872 16.4407 28.7832 16.6504 28.1822C16.6712 28.1232 16.7317 28.078 16.7739 28.0262L16.6467 29.4125C16.6127 29.4517 16.5634 29.486 16.5472 29.5317C16.4034 29.9352 16.2679 30.3417 16.1237 30.7452C16.0939 30.8285 16.0369 30.902 15.9924 30.9797C15.9529 30.928 15.8822 30.878 15.8789 30.824C15.8662 30.6137 15.8749 30.402 15.8757 30.1907Z" fill="#CECDB7"/>
<path fill-rule="evenodd" clip-rule="evenodd" d="M15.9922 30.9797C16.0367 30.9017 16.0937 30.8282 16.1234 30.7452C16.2679 30.342 16.4032 29.9355 16.5469 29.5317C16.5632 29.486 16.6127 29.452 16.6464 29.4125L16.6494 30.3225L16.3449 31.1035L15.9922 30.9797Z" fill="#DBDAC7"/>
<path fill-rule="evenodd" clip-rule="evenodd" d="M16.3452 31.1038L16.6497 30.3228L16.7125 31.2468L16.3452 31.1038Z" fill="#EBE9DC"/>
<path fill-rule="evenodd" clip-rule="evenodd" d="M16.8659 27.7244C16.8169 27.5127 16.8981 27.3449 17.0451 27.2002L17.1294 27.2577L16.8659 27.7244Z" fill="#CECDB7"/>
<path fill-rule="evenodd" clip-rule="evenodd" d="M16.0789 23.793L16.0624 23.7902L16.0459 23.7927L16.0846 23.653L16.0789 23.793Z" fill="#4FAA41"/>
</svg>
