<svg width="32" height="34" viewBox="0 0 32 34" fill="none" xmlns="http://www.w3.org/2000/svg">
<path d="M15.9922 0C15.5055 0 15.019 0.117079 14.599 0.352464L1.38542 7.83338C0.532083 8.31723 0 9.23333 0 10.201V23.7734C0 24.7542 0.532083 25.6572 1.38542 26.1411L4.85417 28.1026C6.53417 28.9134 7.13323 28.9123 7.89323 28.9123C10.3866 28.9123 11.8125 27.4348 11.8125 24.8717V10.8676C11.8125 10.6584 11.6404 10.4871 11.4271 10.4871H9.76042C9.53375 10.4871 9.3724 10.6584 9.3724 10.8676V24.8589C9.3724 26.0097 8.16052 27.134 6.20052 26.1794L2.57292 24.1259C2.43958 24.0605 2.35938 23.9173 2.35938 23.7734V10.2138C2.35938 10.0569 2.43958 9.92447 2.57292 9.846L15.7865 2.36764C15.9065 2.28918 16.0672 2.28918 16.2005 2.36764L29.4141 9.846C29.5474 9.92447 29.6276 10.0572 29.6276 10.201V23.7734C29.6276 23.9173 29.5471 24.0605 29.4271 24.1259L16.2005 31.6196C16.0805 31.685 15.9065 31.685 15.7865 31.6196L12.3854 29.6453C12.2921 29.5799 12.161 29.5674 12.0677 29.6197C11.121 30.1428 10.9477 30.2078 10.0677 30.5086C9.85438 30.5739 9.52083 30.7043 10.1875 31.0705L14.599 33.6348C15.0256 33.8702 15.507 34 15.987 34C16.4803 34 16.9588 33.8702 17.3854 33.6348L30.6146 26.1411C31.4679 25.6572 32 24.7542 32 23.7734V10.2138C32 9.23302 31.4679 8.33 30.6146 7.84615L17.3854 0.352464C16.9654 0.117079 16.4789 0 15.9922 0ZM19.5469 10.4692C15.7735 10.4692 13.5208 12.0374 13.5208 14.6528C13.5208 17.4905 15.7588 18.2739 19.3854 18.627C23.7188 19.0454 24.0521 19.6749 24.0521 20.5119C24.0521 21.9503 22.8674 22.5654 20.0807 22.5654C16.5741 22.5654 15.8002 21.7011 15.5469 20.0011C15.5202 19.818 15.3611 19.6869 15.1745 19.6869H13.4531C13.2398 19.6869 13.0807 19.8585 13.0807 20.0547C13.0807 22.2385 14.2941 24.8385 20.0807 24.8385C24.2674 24.8385 26.6667 23.219 26.6667 20.3944C26.6667 17.5959 24.733 16.8491 20.6797 16.313C16.5597 15.7899 16.1458 15.5152 16.1458 14.5736C16.1458 13.789 16.5069 12.7577 19.5469 12.7577C22.2535 12.7577 23.2664 13.3312 23.6797 15.1227C23.7197 15.2927 23.8654 15.4241 24.0521 15.4241H25.7734C25.8801 15.4241 25.9721 15.3723 26.0521 15.2939C26.1188 15.2285 26.1592 15.123 26.1458 15.0053C25.8792 11.9191 23.7869 10.4692 19.5469 10.4692Z" fill="black"/>
</svg>
