<svg width="32" height="32" viewBox="0 0 32 32" fill="none" xmlns="http://www.w3.org/2000/svg">
<path d="M17.9451 30.8646L17.9031 30.8699C17.6263 30.9045 17.4298 31.1571 17.4644 31.434C17.4964 31.6896 17.714 31.8766 17.9651 31.8766C17.9861 31.8766 18.0072 31.8752 18.0285 31.8726L18.0748 31.8666C18.3515 31.8308 18.5469 31.5774 18.511 31.3007C18.4753 31.024 18.2213 30.8282 17.9451 30.8646Z" fill="black"/>
<path d="M16.1939 30.9883C16.1919 30.9883 16.1897 30.9882 16.1876 30.9883C16.1251 30.9891 16.0626 30.9894 16 30.9894C7.73475 30.9895 1.0105 24.2653 1.0105 16C1.0105 7.73475 7.73475 1.0105 16 1.0105C24.2653 1.0105 30.9895 7.73475 30.9895 16C30.9895 18.2839 30.4893 20.4765 29.5027 22.5169C29.3811 22.7681 29.4864 23.0702 29.7376 23.1917C29.9886 23.3131 30.291 23.208 30.4124 22.9568C31.4658 20.7782 32 18.4376 32 16C32 11.7263 30.3358 7.70831 27.3137 4.68638C24.2917 1.66425 20.2737 0 16 0C11.7263 0 7.70831 1.66425 4.68631 4.68638C1.66425 7.70831 0 11.7263 0 16C0 20.2737 1.66425 24.2917 4.68631 27.3136C7.70831 30.3358 11.7263 32 16 32C16.0667 32 16.1334 31.9996 16.2 31.9988C16.479 31.9954 16.7024 31.7664 16.699 31.4874C16.6956 31.2104 16.4702 30.9883 16.1939 30.9883Z" fill="black"/>
<path d="M26.8801 17.4147H26.0595C25.8167 17.4147 25.6083 17.5874 25.5631 17.8258C25.4747 18.292 25.3509 18.755 25.1953 19.2022C25.1035 19.4657 25.2428 19.7538 25.5063 19.8455C25.7698 19.9371 26.0579 19.798 26.1496 19.5345C26.2758 19.1723 26.3829 18.8007 26.4696 18.4252H26.8801C28.2174 18.4252 29.3054 17.3373 29.3054 16C29.3054 14.6626 28.2174 13.5747 26.8801 13.5747H26.4698C26.2032 12.4159 25.7498 11.3217 25.1179 10.3121L25.4085 10.0216C26.3541 9.07595 26.3541 7.53733 25.4085 6.59164C24.4628 5.64614 22.9241 5.6462 21.9786 6.59164L21.6881 6.8822C20.6785 6.25033 19.5842 5.79695 18.4254 5.53033V5.11995C18.4254 3.78264 17.3375 2.6947 16.0002 2.6947C14.6629 2.6947 13.5749 3.78264 13.5749 5.11995V5.53026C12.4161 5.79689 11.3219 6.25033 10.3123 6.88214L10.0218 6.59158C9.07614 5.64595 7.53751 5.64608 6.59195 6.59158C6.13382 7.0497 5.88164 7.6587 5.88164 8.30658C5.88164 8.95439 6.13395 9.56339 6.59195 10.0215L6.88245 10.312C6.25057 11.3215 5.7972 12.4159 5.53051 13.5746H5.12007C3.78276 13.5746 2.69482 14.6626 2.69482 15.9999C2.69482 17.3372 3.78276 18.4251 5.12007 18.4251H5.53039C5.79701 19.584 6.25051 20.6782 6.88232 21.6878L6.59182 21.9783C6.1337 22.4364 5.88151 23.0455 5.88151 23.6932C5.88151 24.341 6.13382 24.9501 6.59182 25.4082C7.53739 26.3537 9.07601 26.3537 10.0216 25.4082L10.3122 25.1176C11.3218 25.7495 12.4161 26.2029 13.5748 26.4695V26.8798C13.5748 28.2171 14.6628 29.3051 16.0001 29.3051C17.3374 29.3051 18.4253 28.2171 18.4253 26.8798V26.4693C18.8005 26.3826 19.1722 26.2755 19.5346 26.1493C19.7981 26.0576 19.9374 25.7696 19.8457 25.5061C19.7541 25.2425 19.466 25.1031 19.2024 25.195C18.7548 25.3508 18.2917 25.4745 17.8259 25.5628C17.5874 25.608 17.4148 25.8165 17.4148 26.0592V26.8798C17.4148 27.6598 16.7801 28.2945 16 28.2945C15.2199 28.2945 14.5853 27.6598 14.5853 26.8798V26.0592C14.5853 25.8164 14.4126 25.608 14.1742 25.5628C12.8619 25.3139 11.6356 24.8058 10.5292 24.0526C10.3285 23.9158 10.0592 23.9413 9.88757 24.113L9.30707 24.6935C8.75545 25.2451 7.85789 25.2451 7.30639 24.6935C7.03914 24.4263 6.89201 24.071 6.89201 23.693C6.89201 23.3151 7.03914 22.9598 7.30639 22.6926L7.88689 22.1121C8.05845 21.9405 8.08389 21.6711 7.94726 21.4705C7.19407 20.3641 6.68595 19.1378 6.43701 17.8255C6.39176 17.5871 6.18332 17.4145 5.94057 17.4145H5.12007C4.33995 17.4145 3.70532 16.7798 3.70532 15.9997C3.70532 15.2196 4.33995 14.585 5.12007 14.585H5.94057C6.18332 14.585 6.39176 14.4123 6.43701 14.1739C6.68601 12.8616 7.19407 11.6353 7.94726 10.5289C8.08382 10.3283 8.05851 10.0589 7.88689 9.88733L7.30639 9.30676C7.03914 9.03958 6.89201 8.68433 6.89201 8.30639C6.89201 7.92845 7.03914 7.57314 7.30639 7.30595C7.85801 6.75426 8.75545 6.75426 9.30707 7.30595L9.88757 7.88645C10.0593 8.05808 10.3286 8.08351 10.5292 7.94683C11.6356 7.19351 12.8619 6.68545 14.1741 6.43651C14.4126 6.39133 14.5852 6.18289 14.5852 5.94014V5.11995C14.5852 4.33989 15.2198 3.7052 15.9999 3.7052C16.78 3.7052 17.4147 4.33989 17.4147 5.11995V5.94051C17.4147 6.18333 17.5874 6.3917 17.8258 6.43689C19.1381 6.68583 20.3644 7.19389 21.4707 7.94714C21.6714 8.08389 21.9408 8.05839 22.1123 7.88676L22.6928 7.30626C23.2444 6.75464 24.1419 6.75451 24.6935 7.30626C25.2451 7.85789 25.2451 8.75545 24.6935 9.30695L24.113 9.88745C23.9415 10.0591 23.9161 10.3285 24.0526 10.5291C24.8059 11.6355 25.3139 12.8618 25.5629 14.174C25.6081 14.4125 25.8165 14.5851 26.0593 14.5851H26.8799C27.66 14.5851 28.2947 15.2198 28.2947 15.9998C28.2948 16.78 27.6601 17.4147 26.8801 17.4147Z" fill="black"/>
<path d="M19.9424 30.4658L19.8889 30.4802C19.6194 30.5527 19.4597 30.8299 19.5321 31.0994C19.5927 31.3249 19.7968 31.4736 20.0197 31.4736C20.0631 31.4736 20.1073 31.4679 20.1512 31.4562L20.2078 31.4408C20.4771 31.3674 20.6359 31.0897 20.5626 30.8205C20.4893 30.5512 20.211 30.3927 19.9424 30.4658Z" fill="black"/>
<path d="M25.641 21.1004C25.6408 21.1003 25.6407 21.1001 25.6405 21.0999C25.2905 20.7499 24.8253 20.5573 24.3304 20.5573C24.0089 20.5573 23.6998 20.6386 23.4267 20.7916L22.5012 19.8661C24.239 16.9563 23.8564 13.123 21.3532 10.6198C18.398 7.66481 13.5899 7.66481 10.6349 10.6198C9.20341 12.0513 8.41504 13.9546 8.41504 15.979C8.41504 18.0034 9.20341 19.9066 10.6349 21.3381C12.0664 22.7696 13.9696 23.558 15.994 23.558C17.3854 23.558 18.7197 23.1854 19.8827 22.4878L20.8066 23.4117C20.6537 23.6848 20.5722 23.9939 20.5722 24.3154C20.5722 24.8102 20.765 25.2754 21.1144 25.6249L26.932 31.4574C27.2932 31.8186 27.7675 31.9991 28.242 31.9991C28.7164 31.9991 29.1908 31.8185 29.552 31.4574L31.4575 29.5519C32.1797 28.8296 32.1798 27.6543 31.458 26.9323L25.641 21.1004ZM19.6982 21.4056C19.6785 21.417 19.6594 21.4299 19.6412 21.4442C18.5706 22.1619 17.3119 22.5474 15.994 22.5474C14.2395 22.5474 12.5901 21.8641 11.3495 20.6234C10.1089 19.3829 9.42566 17.7334 9.42566 15.9789C9.42566 14.2245 10.1089 12.575 11.3495 11.3344C12.63 10.0539 14.312 9.41363 15.994 9.41363C17.676 9.41363 19.3581 10.0539 20.6386 11.3344C22.8959 13.5918 23.1637 17.0969 21.4417 19.6501C21.4397 19.6531 21.4375 19.6562 21.4355 19.6593C21.2053 19.9994 20.9397 20.3225 20.6387 20.6236C20.3465 20.9157 20.0316 21.1769 19.6982 21.4056ZM20.7252 21.901C20.9432 21.7263 21.1527 21.5385 21.3532 21.3381C21.5545 21.1368 21.7419 20.9271 21.9157 20.7098L22.6632 21.4572L21.4722 22.6481L20.7252 21.901ZM30.7429 28.8373L28.8374 30.7428C28.5091 31.0713 27.9749 31.0712 27.647 30.7433L21.8295 24.9108C21.6704 24.7518 21.5828 24.5403 21.5828 24.3154C21.5828 24.0905 21.6704 23.8789 21.8295 23.72L23.735 21.8145C23.894 21.6555 24.1054 21.5679 24.3304 21.5679C24.5552 21.5679 24.7665 21.6554 24.9254 21.8141L30.7429 27.6465C31.0713 27.9748 31.0713 28.5091 30.7429 28.8373Z" fill="black"/>
<path d="M12.3022 12.2871C10.2665 14.3229 10.2665 17.6352 12.3022 19.671C13.32 20.6887 14.657 21.1976 15.994 21.1976C17.331 21.1976 18.668 20.6887 19.6859 19.671C21.7216 17.6352 21.7216 14.3229 19.6859 12.2871C17.6501 10.2515 14.3378 10.2515 12.3022 12.2871ZM18.9714 18.9563C18.1504 19.7771 17.0724 20.1876 15.994 20.1875C14.9159 20.1874 13.8375 19.777 13.0168 18.9564C11.3752 17.3147 11.3752 14.6434 13.0168 13.0018C14.6585 11.3601 17.3298 11.3601 18.9713 13.0018C20.613 14.6433 20.613 17.3146 18.9714 18.9563Z" fill="black"/>
<path d="M22.5168 29.5027L22.4689 29.5259C22.2174 29.6467 22.1112 29.9485 22.232 30.2C22.3189 30.3811 22.4996 30.4868 22.6879 30.4868C22.7612 30.4868 22.8357 30.4707 22.9061 30.4369L22.957 30.4124C23.2082 30.2908 23.3133 29.9887 23.1917 29.7375C23.0702 29.4863 22.7682 29.3811 22.5168 29.5027Z" fill="black"/>
</svg>
