<svg width="44" height="44" viewBox="0 0 44 44" fill="none" xmlns="http://www.w3.org/2000/svg">
<g clip-path="url(#clip0_4055_640)">
<path d="M34.1165 32.1072C33.2695 32.1072 32.483 31.999 31.9917 31.6984C31.8889 31.6356 31.7994 31.5533 31.7284 31.456C31.6575 31.3587 31.6063 31.2484 31.578 31.1314C31.5496 31.0143 31.5446 30.8928 31.5632 30.7739C31.5818 30.6549 31.6237 30.5407 31.6864 30.4379C31.7491 30.3351 31.8315 30.2457 31.9288 30.1747C32.026 30.1037 32.1363 30.0526 32.2534 30.0243C32.3704 29.9959 32.4919 29.9909 32.6109 30.0095C32.7299 30.0281 32.844 30.07 32.9468 30.1327C33.5665 30.5012 36.7675 30.0795 37.4147 29.7788C39.325 29.216 40.0418 28.4112 40.2178 27.9987C40.0602 28.0335 39.8695 28.083 39.7008 28.127C38.9015 28.3342 37.8088 28.6238 36.4283 28.5542C34.8498 28.479 33.8782 27.9657 33.5848 27.7035C33.4932 27.6255 33.4179 27.5302 33.3631 27.4231C33.3083 27.316 33.2752 27.1991 33.2655 27.0792C33.2559 26.9592 33.27 26.8386 33.307 26.7241C33.344 26.6096 33.4032 26.5035 33.4812 26.4119C33.5592 26.3203 33.6545 26.245 33.7616 26.1902C33.8688 26.1354 33.9856 26.1023 34.1056 26.0926C34.2255 26.083 34.3462 26.0971 34.4606 26.1341C34.5751 26.1711 34.6812 26.2303 34.7728 26.3083C34.8388 26.3468 35.4108 26.6695 36.5163 26.7245C37.6182 26.7685 38.5165 26.5393 39.237 26.3523C40.1097 26.1232 41.0117 25.8867 41.6442 26.5888C42.0695 27.0618 42.2015 27.7273 42.0053 28.4148C41.6295 29.7348 40.1573 30.8807 38.0673 31.482C37.6567 31.6947 35.7683 32.1072 34.1165 32.1072ZM10.7562 31.1025C10.0595 31.1025 9.37015 30.7872 8.70282 30.1638C7.17565 28.7595 5.85749 25.8133 5.21032 24.1798C4.34499 21.9377 3.50532 19.1748 2.84349 16.39C2.25865 14.0213 1.90665 11.9497 1.86082 11.1284C1.67199 7.48002 2.48049 4.73369 4.26249 2.96452C5.65032 1.56569 7.67432 0.781019 10.274 0.632519C10.838 0.592757 11.4041 0.59337 11.968 0.634352C14.3293 0.729686 16.6137 1.36219 18.1207 1.82969C18.239 1.86228 18.3496 1.91832 18.4459 1.99447C18.5422 2.07062 18.6222 2.16534 18.6812 2.273C18.7401 2.38065 18.7769 2.49906 18.7892 2.62119C18.8016 2.74333 18.7893 2.8667 18.7531 2.98399C18.7168 3.10127 18.6574 3.21009 18.5783 3.30398C18.4992 3.39787 18.4021 3.47492 18.2927 3.53055C18.1833 3.58619 18.0638 3.61928 17.9413 3.62786C17.8189 3.63645 17.6959 3.62035 17.5798 3.58052C16.6815 3.30369 14.2945 2.56119 11.8543 2.46402C11.605 2.44385 11.3593 2.44935 11.11 2.44385C10.8721 2.43827 10.6342 2.44378 10.3968 2.46035C8.21515 2.58502 6.63849 3.17535 5.55865 4.26069C4.15799 5.65218 3.53099 7.92735 3.69049 11.0312C3.72532 11.6417 4.03699 13.5759 4.62365 15.9592C5.26899 18.6725 6.08115 21.351 6.91532 23.5107C7.91632 26.0333 9.02182 27.9712 9.94765 28.82C10.1768 29.0327 10.4757 29.3022 10.7727 29.2673C10.89 29.2618 11.2237 29.1867 11.7498 28.5927C12.3218 27.9565 13.2055 27.0068 14.025 26.1232L15.5045 24.5245C15.6688 24.3449 15.8978 24.2378 16.1411 24.227C16.3843 24.2162 16.6219 24.3024 16.8016 24.4668C16.9812 24.6311 17.0882 24.8601 17.0991 25.1033C17.1099 25.3466 17.0237 25.5842 16.8593 25.7639L15.3707 27.3717C14.5585 28.2462 13.6822 29.1885 13.1193 29.8137C12.3952 30.6295 11.6325 31.0658 10.857 31.0988L10.7562 31.1025Z" fill="black"/>
<path d="M25.9819 44.0018C24.9424 44.0018 24.0899 43.6956 23.3584 43.0686C22.5811 42.3995 22.1539 41.492 21.8404 40.6908C21.6956 40.326 21.5727 39.567 21.5049 38.9766C21.4096 38.0648 21.3448 37.1501 21.3106 36.234C21.2178 33.741 21.2086 31.2457 21.2831 28.7521C21.2529 28.5931 21.2118 28.4363 21.1602 28.2828C21.0576 28.0023 20.8064 27.4908 20.3059 27.28C20.2106 27.2378 20.1226 27.1883 20.0254 27.1315C19.8714 27.0398 19.8109 27.0086 19.6862 27.0086C19.5274 27.0508 19.3604 27.0511 19.2014 27.0097C19.0424 26.9683 18.8968 26.8864 18.7787 26.7721C18.663 26.6631 18.5776 26.5258 18.531 26.3737C18.4844 26.2217 18.4782 26.0602 18.5129 25.905C18.7017 25.1955 18.9309 24.4951 19.1564 23.936C19.2499 23.6756 19.3819 23.3731 19.5267 23.0468C20.2692 21.351 21.2849 19.03 20.1904 13.8691C19.9869 12.9158 19.4717 12.2301 18.7384 11.9405C18.0949 11.6856 17.3066 11.6765 16.3257 11.9038C15.513 12.1019 14.7318 12.4122 14.0047 12.826C13.8587 12.9099 13.6923 12.9519 13.5239 12.9473C13.3556 12.9427 13.1917 12.8917 13.0505 12.8C12.9092 12.7082 12.7961 12.5792 12.7234 12.4272C12.6508 12.2753 12.6216 12.1062 12.6389 11.9386C12.6499 11.8121 12.9524 8.87148 13.6564 6.97215C14.3549 5.07831 15.3541 3.56948 16.6264 2.48598C18.1939 1.15865 20.0767 0.511481 22.3849 0.505981L22.3867 0.509648H22.6086C26.8894 0.581148 30.5689 2.46948 33.2639 5.97115C34.1361 7.10362 34.856 8.3456 35.4052 9.66531C35.5042 9.90365 35.5574 10.0723 35.6069 10.2373C35.6967 10.5306 35.6601 10.9358 35.4639 11.1723C35.2696 11.4106 34.9891 11.6123 34.6884 11.5866C32.7744 11.3868 31.4617 11.6875 30.7926 12.4721C30.1582 13.2091 30.0446 14.3605 30.4442 15.994C30.8347 17.5908 31.6194 19.2188 32.1731 20.3041C32.4554 20.8541 32.7267 21.351 32.9559 21.7745L33.0201 21.8918L33.0366 21.9193C33.2199 22.2438 33.3959 22.5683 33.6031 23.0046C33.894 23.7164 34.2868 24.3821 34.7691 24.981C34.9396 25.1991 35.1046 25.421 35.2897 25.6886C35.3705 25.8086 35.422 25.9458 35.44 26.0893C35.458 26.2328 35.442 26.3785 35.3933 26.5146C35.3445 26.6508 35.2645 26.7736 35.1596 26.8731C35.0546 26.9726 34.9278 27.046 34.7892 27.0875C34.6627 27.1232 34.539 27.1679 34.4189 27.2213C34.1475 27.3466 33.9233 27.5554 33.7791 27.8171C33.5866 28.1746 33.5059 28.6898 33.5352 29.3443C33.4436 30.6496 32.7359 36.6483 32.3857 38.7328C32.1181 40.315 31.6707 41.3673 30.9374 42.1391C30.1729 42.9458 29.1004 43.4701 27.4577 43.8295C26.9261 43.945 26.4366 44.0018 25.9819 44.0018ZM23.0706 28.402C23.0871 28.402 23.1164 28.5816 23.1164 28.7576C23.0828 29.8659 23.0656 30.9746 23.0651 32.0833C23.0651 33.4491 23.0944 34.8058 23.1421 36.1606C23.1842 37.169 23.2484 38.0636 23.3272 38.7713C23.4061 39.4753 23.5106 39.9245 23.5472 40.0216C23.7782 40.612 24.0789 41.272 24.5519 41.6771C24.9442 42.0145 25.5822 42.3591 27.0617 42.0365C28.3231 41.7596 29.1077 41.4003 29.6046 40.876C30.0739 40.381 30.3727 39.6256 30.5762 38.4248C30.9136 36.4301 31.6176 30.4553 31.7037 29.3131C31.6561 28.4185 31.8064 27.6081 32.1621 26.9463C32.3912 26.5173 32.7267 26.1433 33.1301 25.8536C32.6568 25.2232 32.2622 24.5373 31.9549 23.8113C31.8197 23.5202 31.6742 23.234 31.5186 22.9533C31.5039 22.9295 31.4892 22.9075 31.4764 22.8818L31.4782 22.88L31.4727 22.869L31.4526 22.8305L31.4452 22.8195C31.4193 22.7604 31.3991 22.6972 31.3847 22.6343L31.3462 22.6435C31.1116 22.2108 30.8329 21.6975 30.5432 21.1328C29.5936 19.2793 28.9959 17.7833 28.6641 16.4248C28.1159 14.1753 28.3579 12.4923 29.4029 11.275C30.2811 10.2465 31.5992 9.72398 33.4124 9.69098C32.9733 8.768 32.4368 7.89464 31.8119 7.08581C29.4359 3.99665 26.3339 2.39981 22.5939 2.33748H22.3849C20.5296 2.33931 19.0336 2.84165 17.8126 3.87931C16.7859 4.75381 15.9646 6.00598 15.3761 7.60281C15.0644 8.44615 14.8352 9.57181 14.6849 10.4885C15.0919 10.3363 15.5026 10.2116 15.9059 10.1163C17.2626 9.79181 18.4121 9.83581 19.4149 10.2318C20.7202 10.747 21.6571 11.9331 21.9889 13.4823C23.2044 19.2206 22.0036 21.9615 21.2097 23.7765C21.0832 24.0661 20.9659 24.3338 20.8724 24.5868C20.7771 24.8215 20.6817 25.0818 20.5919 25.355C20.7441 25.421 20.8669 25.4925 20.9567 25.5456C21.8661 25.9435 22.5279 26.6768 22.8854 27.6503C22.9716 27.896 23.0321 28.1453 23.0706 28.402Z" fill="black"/>
<path d="M19.4021 27.06C17.4258 27.06 15.5081 26.147 14.1404 24.5557C13.4581 23.7687 12.9537 22.8437 12.662 21.8438C12.3702 20.8439 12.298 19.7928 12.4501 18.7623C12.6591 17.3085 12.7416 15.785 12.6958 14.2377C12.6756 13.057 12.6371 12.0633 12.6371 12.0597C12.6277 11.8166 12.715 11.5798 12.88 11.4011C13.045 11.2223 13.2741 11.1163 13.5171 11.1063C14.0213 11.1137 14.4503 11.4803 14.4686 11.9863C14.4686 11.9863 14.5089 13.0002 14.5291 14.1918C14.5786 15.8345 14.4906 17.4625 14.2651 19.0282C14.1513 19.7983 14.2055 20.584 14.4242 21.3312C14.6429 22.0784 15.0208 22.7694 15.5319 23.3567C16.5513 24.5428 17.9629 25.2248 19.4021 25.2248C19.6455 25.2248 19.8789 25.3215 20.0509 25.4936C20.223 25.6657 20.3197 25.8991 20.3197 26.1424C20.3197 26.3858 20.223 26.6192 20.0509 26.7912C19.8789 26.9633 19.6455 27.06 19.4021 27.06ZM34.5399 27.1223C34.2969 27.1214 34.064 27.0253 33.8909 26.8547C33.5169 26.4807 33.5719 26.1745 33.7791 25.036C33.9716 23.9653 34.2979 22.1723 34.3456 20.5278C34.3658 19.4333 34.2466 18.3718 34.1421 17.4368C34.0523 16.6393 33.9753 15.9518 33.9954 15.3615C34.0523 13.7207 34.0908 12.6408 33.8634 10.7763C33.8344 10.535 33.9023 10.292 34.0521 10.1006C34.2019 9.90918 34.4215 9.78497 34.6628 9.75517C34.7826 9.73878 34.9045 9.74661 35.0212 9.77817C35.1379 9.80974 35.2471 9.86441 35.3424 9.93895C35.4376 10.0135 35.5169 10.1064 35.5755 10.2121C35.6342 10.3178 35.6711 10.4343 35.6839 10.5545C35.9278 12.562 35.8856 13.7628 35.8269 15.4238C35.8123 15.8785 35.8819 16.5055 35.9644 17.2297C36.0763 18.2215 36.2028 19.3453 36.1808 20.57C36.1679 20.9825 36.1423 21.3968 36.1038 21.8093C37.2973 19.404 38.4046 16.4817 39.4514 12.9818C40.0088 11.0953 40.3131 9.38117 40.3314 8.03367C40.3516 6.60183 40.0289 5.92533 39.9024 5.78417C37.5503 3.18633 34.1898 1.859 29.9181 1.83333H29.5918C28.9281 1.84433 28.2204 2.06983 27.4743 2.30817C26.9389 2.47867 26.4109 2.6455 25.8903 2.74267C25.6552 2.77923 25.4151 2.72298 25.2208 2.58579C25.0264 2.4486 24.893 2.24123 24.8487 2.00749C24.8045 1.77374 24.8528 1.53194 24.9835 1.33318C25.1142 1.13442 25.3171 0.994264 25.5493 0.942333C26.0003 0.856167 26.4549 0.7095 26.9169 0.561C27.7584 0.2915 28.6293 0.0146667 29.5789 0H29.9236C34.7361 0.0275 38.5494 1.56017 41.2628 4.554C41.8586 5.214 42.1868 6.49183 42.1648 8.0575C42.1428 9.57183 41.8128 11.4565 41.2078 13.5043C39.4569 19.3563 37.5191 23.6885 35.2788 26.7483C35.2005 26.8546 35.1002 26.9427 34.9847 27.0066C34.8692 27.0705 34.7412 27.1088 34.6096 27.1187C34.5876 27.1223 34.5638 27.1223 34.5399 27.1223Z" fill="black"/>
<path d="M16.7604 33.033C15.1141 33.033 14.0416 32.681 13.4989 31.966C13.3308 31.7506 13.2218 31.4951 13.1825 31.2247C13.1433 30.9544 13.1753 30.6784 13.2753 30.4242C13.5814 29.656 14.3661 29.4415 15.1251 29.2343C15.5908 29.106 16.1188 28.9612 16.6761 28.6917C17.7468 28.1728 19.4261 26.4458 19.9853 25.8262C20.1488 25.6496 20.3752 25.5444 20.6156 25.5334C20.856 25.5223 21.0911 25.6062 21.2702 25.767C21.4493 25.9277 21.5579 26.1525 21.5727 26.3927C21.5875 26.6329 21.5073 26.8693 21.3493 27.0508C21.1201 27.3075 19.0594 29.5753 17.4736 30.3435C16.7659 30.6863 16.1261 30.8605 15.6109 31.0017L15.4111 31.0567C15.8529 31.1758 16.6871 31.2712 18.2069 31.1153C20.6141 30.8605 21.3016 29.2472 21.3309 29.1793C21.3746 29.0671 21.44 28.9646 21.5233 28.8777C21.6066 28.7908 21.7062 28.7211 21.8165 28.6727C21.9267 28.6242 22.0454 28.598 22.1658 28.5954C22.2861 28.5929 22.4058 28.614 22.518 28.6577C22.6302 28.7014 22.7327 28.7668 22.8196 28.8501C22.9066 28.9334 22.9762 29.033 23.0247 29.1433C23.0731 29.2535 23.0993 29.3722 23.1019 29.4926C23.1045 29.6129 23.0833 29.7326 23.0396 29.8448C22.9974 29.9567 21.9616 32.5618 18.3994 32.9395C17.8551 32.9987 17.308 33.0299 16.7604 33.033ZM20.9258 15.598C20.1888 15.598 18.7129 15.4587 17.5891 14.454C16.6486 13.6162 16.1719 12.4025 16.1719 10.8497C16.1719 10.6065 16.2685 10.3734 16.4404 10.2015C16.6123 10.0296 16.8455 9.93299 17.0886 9.93299C17.3317 9.93299 17.5649 10.0296 17.7368 10.2015C17.9087 10.3734 18.0053 10.6065 18.0053 10.8497C18.0053 11.8525 18.2729 12.6023 18.8009 13.079C19.7103 13.8985 21.1659 13.7555 21.1824 13.7555C21.302 13.7418 21.423 13.7519 21.5386 13.7853C21.6542 13.8187 21.762 13.8747 21.8558 13.9501C21.9496 14.0254 22.0275 14.1187 22.085 14.2244C22.1425 14.3301 22.1785 14.4461 22.1908 14.5658C22.2176 14.8066 22.148 15.0483 21.9972 15.2379C21.8464 15.4275 21.6266 15.5498 21.3859 15.5778C21.3603 15.5797 21.1916 15.598 20.9258 15.598ZM29.3096 15.609C29.0665 15.609 28.8333 15.5124 28.6614 15.3405C28.4895 15.1686 28.3929 14.9354 28.3929 14.6923C28.3929 14.4492 28.4895 14.216 28.6614 14.0441C28.8333 13.8722 29.0665 13.7757 29.3096 13.7757C30.2079 13.7757 30.8624 13.5392 31.3098 13.0497C32.1146 12.1715 32.0156 10.7323 32.0156 10.7195C32.0021 10.598 32.0131 10.475 32.0479 10.3578C32.0826 10.2406 32.1405 10.1315 32.2181 10.037C32.2956 9.94253 32.3913 9.86449 32.4994 9.80751C32.6076 9.75053 32.726 9.71576 32.8478 9.70524C32.9696 9.69472 33.0923 9.70868 33.2086 9.74628C33.3249 9.78387 33.4326 9.84436 33.5252 9.92418C33.6178 10.004 33.6935 10.1015 33.7478 10.211C33.8022 10.3205 33.834 10.4398 33.8416 10.5618C33.8489 10.6535 34.0194 12.8113 32.6609 14.2908C31.8598 15.1635 30.7323 15.609 29.3096 15.609Z" fill="black"/>
</g>
<defs>
<clipPath id="clip0_4055_640">
<rect width="44" height="44" fill="white"/>
</clipPath>
</defs>
</svg>
