<svg width="29" height="30" viewBox="0 0 29 30" fill="none" xmlns="http://www.w3.org/2000/svg">
<path d="M17.0007 29.136C14.9427 29.136 14.2907 27.5062 14.024 26.8397C13.6335 25.863 13.5492 22.0725 13.6362 18.964C13.6375 18.9116 13.6492 18.8599 13.6705 18.812C13.6918 18.7641 13.7224 18.7209 13.7606 18.6849C13.7987 18.6489 13.8435 18.6207 13.8926 18.6021C13.9416 18.5835 13.9938 18.5748 14.0462 18.5765C14.0986 18.5779 14.1501 18.5896 14.198 18.611C14.2458 18.6324 14.2889 18.663 14.3249 18.701C14.3609 18.7391 14.389 18.7839 14.4077 18.8328C14.4264 18.8817 14.4352 18.9339 14.4337 18.9862C14.3335 22.5715 14.4757 25.8205 14.7647 26.5435C15.2157 27.6707 15.8997 28.6567 17.8335 28.2425C19.6692 27.8487 20.3567 27.1527 20.663 25.3775C20.898 24.0152 21.3627 20.1397 21.42 19.375C21.4238 19.3227 21.4379 19.2717 21.4615 19.2249C21.485 19.1781 21.5176 19.1364 21.5573 19.1022C21.597 19.0681 21.6431 19.042 21.6929 19.0257C21.7427 19.0094 21.7952 19.003 21.8475 19.007C21.9529 19.015 22.0509 19.0645 22.1199 19.1446C22.1889 19.2248 22.2232 19.329 22.2155 19.4345C22.1557 20.2307 21.6932 24.0987 21.4492 25.5132C21.0877 27.61 20.153 28.561 18.0007 29.0225C17.635 29.1007 17.3027 29.1357 17.0007 29.136ZM5.84171 21.1757C5.66183 21.1751 5.48322 21.1456 5.31271 21.0882C3.97596 20.6422 2.70271 18.4652 1.52822 14.617C0.634215 11.6877 0.0677151 8.63023 0.0179651 7.63648C-0.129285 4.69048 0.629215 2.60623 2.27296 1.44198C5.52471 -0.862022 10.995 1.33198 11.2262 1.42648C11.3242 1.46649 11.4022 1.54378 11.4432 1.64135C11.4842 1.73892 11.4847 1.84876 11.4447 1.94673C11.4047 2.04469 11.3274 2.12275 11.2298 2.16373C11.1323 2.2047 11.0224 2.20524 10.9245 2.16523C10.8717 2.14373 5.62621 0.0422282 2.73247 2.09398C1.32697 3.09048 0.681715 4.94198 0.814465 7.59673C0.856215 8.43398 1.38547 11.418 2.29096 14.384C3.33946 17.8195 4.53271 19.9872 5.56496 20.3315C5.72696 20.3855 6.21996 20.5497 6.92471 19.7022C7.74658 18.7152 8.59925 17.7542 9.48146 16.8207C9.55528 16.7471 9.65499 16.7053 9.75925 16.7042C9.86351 16.7032 9.96403 16.743 10.0393 16.8152C10.1146 16.8873 10.1586 16.986 10.162 17.0902C10.1654 17.1944 10.1279 17.2958 10.0575 17.3727C10.0455 17.3852 8.84571 18.6395 7.53821 20.2125C6.91896 20.9572 6.32546 21.1757 5.84171 21.1757ZM23.199 17.8145C23.1266 17.8144 23.0557 17.7946 22.9937 17.7573C22.9318 17.72 22.8811 17.6666 22.8472 17.6028C22.8132 17.5389 22.7973 17.467 22.801 17.3948C22.8048 17.3226 22.8281 17.2527 22.8685 17.1927C26.5842 11.679 27.8885 5.01673 26.7715 3.58923C25.3655 1.79273 23.3802 0.854478 20.8705 0.800228C19.0122 0.760228 17.5352 1.23473 17.2937 1.31748L17.233 1.34223C16.9902 1.41848 16.804 1.28548 16.7337 1.12998C16.6937 1.04089 16.6876 0.940217 16.7166 0.846958C16.7457 0.753699 16.8079 0.674297 16.8915 0.623728C16.903 0.616978 16.9395 0.601478 16.9987 0.579728C17.409 0.429478 18.9085 -0.0205219 20.7657 0.000728148C23.5427 0.0302281 25.8367 1.10098 27.3992 3.09773C28.1385 4.04248 28.1402 6.21898 27.404 9.06948C26.6535 11.9757 25.2412 15.099 23.5297 17.6387C23.4532 17.753 23.3272 17.8145 23.199 17.8145ZM23.389 20.367C22.7545 20.367 22.1857 20.2775 21.8452 20.0735C21.4952 19.8637 21.4285 19.5787 21.4197 19.4275C21.3242 17.75 22.2497 17.458 22.7217 17.3247C22.656 17.2252 22.5625 17.1082 22.4657 16.9875C22.1905 16.6435 21.8135 16.1725 21.523 15.468C21.4775 15.358 21.335 15.1022 21.17 14.806C20.2752 13.2015 18.4135 9.86273 19.6095 8.15298C20.163 7.36173 21.2652 7.05023 22.8892 7.22398C22.4115 5.76848 20.1365 1.21548 14.7382 1.12698C13.1147 1.09998 11.7832 1.59923 10.7827 2.60948C8.54271 4.87173 8.62371 8.96498 8.62496 9.00598C8.62634 9.05834 8.61739 9.11047 8.59863 9.15937C8.57986 9.20828 8.55165 9.25301 8.5156 9.29101C8.47955 9.32901 8.43636 9.35954 8.38851 9.38086C8.34066 9.40217 8.28908 9.41385 8.23671 9.41523C8.18435 9.41661 8.13223 9.40766 8.08332 9.38889C8.03441 9.37013 7.98968 9.34191 7.95168 9.30586C7.91368 9.26981 7.88315 9.22662 7.86184 9.17877C7.84052 9.13092 7.82884 9.07934 7.82746 9.02698C7.82246 8.84523 7.73897 4.54973 10.216 2.04798C11.3752 0.877228 12.9012 0.299228 14.7515 0.329478C18.205 0.386228 20.428 2.14198 21.6845 3.60473C23.0542 5.19898 23.7257 6.95748 23.781 7.54448C23.8222 7.98098 23.509 8.06823 23.4457 8.08123L23.3017 8.08448C21.708 7.82923 20.6855 8.00648 20.2627 8.61048C19.353 9.91073 21.1142 13.069 21.8662 14.4177C22.0582 14.7617 22.1967 15.0105 22.2602 15.164C22.5072 15.763 22.8295 16.1655 23.0882 16.489C23.316 16.7735 23.5132 17.0202 23.5837 17.3097C23.6165 17.3672 24.0812 18.0547 26.839 17.4855C27.5302 17.343 27.9447 17.4647 28.0715 17.848C28.3207 18.6017 26.9222 19.481 26.148 19.8405C25.4542 20.163 24.347 20.367 23.389 20.367ZM22.215 19.3617C22.3025 19.45 22.7402 19.6022 23.6467 19.5632C24.4527 19.5287 25.3027 19.3535 25.8127 19.1167C26.465 18.8137 26.9005 18.475 27.126 18.2437L27.001 18.2667C25.2377 18.6307 23.9905 18.5822 23.294 18.1225C23.2472 18.0915 23.2021 18.0581 23.159 18.0222C23.0835 18.052 23.0137 18.0715 22.964 18.0855C22.569 18.1962 22.1605 18.311 22.215 19.3617ZM10.8245 21.5905C10.3865 21.5905 9.92546 21.5307 9.45471 21.413C8.96696 21.291 8.14471 20.9237 8.15721 20.3205C8.17146 19.6437 9.15571 19.4407 9.52621 19.3645C10.8647 19.0887 10.952 18.9782 11.3702 18.447C11.4922 18.2922 11.644 18.0995 11.851 17.8685C12.1582 17.5245 12.494 17.3502 12.849 17.3502C13.0962 17.3502 13.299 17.434 13.433 17.4897C13.86 17.6667 14.2162 18.0947 14.3627 18.6065C14.495 19.0682 14.4317 19.5127 14.1852 19.858C13.376 20.9912 12.2137 21.5905 10.8245 21.5905ZM9.01896 20.3547C9.13921 20.4477 9.38021 20.572 9.64846 20.639C10.0562 20.741 10.4517 20.7927 10.8247 20.7927C11.9612 20.7927 12.8737 20.3222 13.5365 19.3942C13.6747 19.2007 13.6332 18.955 13.5962 18.8257C13.5187 18.555 13.3262 18.3087 13.128 18.2265C13.0205 18.182 12.9312 18.148 12.8492 18.148C12.8052 18.148 12.6712 18.148 12.4457 18.4002C12.2901 18.5752 12.1405 18.7555 11.9972 18.9407C11.4762 19.6022 11.2375 19.8267 9.68746 20.146C9.30921 20.2235 9.11521 20.3025 9.01896 20.3547ZM12.0862 18.5147C11.991 18.5146 11.899 18.4804 11.8267 18.4183C11.7545 18.3562 11.7069 18.2704 11.6925 18.1762C11.6825 18.11 11.6759 18.0433 11.6725 17.9765C10.6565 17.9575 9.67621 17.5215 8.93196 16.745C7.99096 15.7632 7.56272 14.403 7.75722 13.0132C7.96846 11.504 7.88946 10.1717 7.84696 9.45598C7.83521 9.25698 7.82671 9.11323 7.82721 9.01373C7.82796 8.88748 7.83046 8.55273 8.94946 7.98548C9.34746 7.78373 10.1455 7.43173 11.0172 7.34148C12.4615 7.19223 13.4135 7.83548 13.6985 9.15298C14.4677 12.71 13.7595 14.2832 13.2422 15.4322C13.146 15.6462 13.055 15.8482 12.9822 16.044L12.918 16.2165C12.6447 16.9492 12.4085 17.5822 12.481 18.055C12.4889 18.1068 12.4866 18.1596 12.4741 18.2105C12.4617 18.2613 12.4393 18.3093 12.4083 18.3515C12.3773 18.3937 12.3383 18.4294 12.2935 18.4566C12.2487 18.4837 12.199 18.5018 12.1472 18.5097L12.0862 18.5147ZM8.62746 9.12423L8.64296 9.40898C8.68696 10.1525 8.76896 11.536 8.54696 13.124C8.38671 14.2702 8.73671 15.389 9.50771 16.193C10.117 16.8285 10.9187 17.1792 11.7427 17.1792H11.7597C11.852 16.7905 12.0052 16.38 12.1702 15.9377L12.234 15.7662C12.3162 15.5452 12.4125 15.3312 12.5145 15.1047C13.0122 13.9987 13.632 12.622 12.9182 9.32173C12.777 8.66798 12.4342 8.28973 11.871 8.16498C10.714 7.90948 8.98971 8.77973 8.62746 9.12423ZM11.035 8.95498C11.015 9.09598 11.2932 9.47248 11.6562 9.52273C12.0185 9.57348 12.3285 9.27898 12.3482 9.13798C12.368 8.99698 12.09 8.84148 11.727 8.79098C11.3642 8.74048 11.0542 8.81398 11.035 8.95498ZM11.7395 9.66148L11.6377 9.65448C11.4127 9.62323 11.1852 9.48148 11.0295 9.27498C10.9747 9.20248 10.8855 9.06198 10.9032 8.93648C10.9285 8.75248 11.153 8.64223 11.5032 8.64223C11.5815 8.64223 11.663 8.64798 11.745 8.65948C11.9365 8.68598 12.1142 8.74123 12.2455 8.81448C12.473 8.94148 12.4897 9.08323 12.4795 9.15648C12.4515 9.35973 12.1282 9.66148 11.7395 9.66148ZM11.1672 8.97848C11.1785 9.06548 11.394 9.35248 11.6745 9.39123L11.7397 9.39573C11.9987 9.39573 12.1922 9.19198 12.215 9.12523C12.191 9.07973 12.0245 8.96673 11.7087 8.92273C11.6407 8.91298 11.5721 8.90805 11.5035 8.90798C11.3005 8.90798 11.1927 8.95373 11.1672 8.97848ZM22.0685 8.66723C22.0882 8.80823 21.8102 9.18473 21.4475 9.23523C21.085 9.28573 20.7747 8.99148 20.7547 8.85048C20.7357 8.70948 21.0137 8.55373 21.3762 8.50348C21.7387 8.45273 22.0485 8.52648 22.0685 8.66723ZM21.3637 9.30723C21.0147 9.30723 20.7135 9.03573 20.6887 8.85948C20.66 8.64798 21.0082 8.48723 21.3667 8.43748C21.4457 8.42648 21.524 8.42098 21.5992 8.42098C21.9087 8.42098 22.1137 8.51173 22.1342 8.65823C22.1475 8.75298 22.0747 8.89923 21.9495 9.03123C21.8667 9.11798 21.693 9.26823 21.4562 9.30098L21.3637 9.30723ZM21.5995 8.55398C21.5305 8.55398 21.4585 8.55923 21.3855 8.56923C21.0252 8.61948 20.8102 8.76398 20.8207 8.84148C20.8327 8.92673 21.0627 9.17448 21.364 9.17448L21.4382 9.16923C21.635 9.14198 21.7827 9.01348 21.8532 8.93948C21.964 8.82323 22.008 8.71373 22.0027 8.67648C21.9957 8.62698 21.8627 8.55398 21.5995 8.55398ZM22.5907 16.7647C22.5184 16.7648 22.4475 16.7452 22.3855 16.708C22.3236 16.6708 22.2729 16.6175 22.2388 16.5537C22.2048 16.49 22.1888 16.4181 22.1925 16.346C22.1962 16.2738 22.2194 16.204 22.2597 16.144C23.1092 14.8752 22.9537 13.5815 22.8035 12.3302C22.7392 11.7972 22.6732 11.246 22.6902 10.717C22.7077 10.1727 22.777 9.72373 22.8437 9.28948C22.923 8.77498 22.998 8.28898 22.967 7.71198C22.9641 7.65968 22.9716 7.60734 22.989 7.55794C23.0065 7.50854 23.0334 7.46305 23.0684 7.42408C23.1034 7.3851 23.1457 7.35339 23.1929 7.33077C23.2402 7.30815 23.2914 7.29505 23.3437 7.29223C23.396 7.2894 23.4484 7.29691 23.4978 7.31432C23.5472 7.33172 23.5926 7.35869 23.6316 7.39367C23.6706 7.42866 23.7023 7.47097 23.7249 7.51821C23.7475 7.56545 23.7606 7.61668 23.7635 7.66898C23.799 8.32848 23.7142 8.87848 23.6322 9.41073C23.569 9.82148 23.5035 10.2462 23.4877 10.7425C23.4725 11.211 23.5322 11.7085 23.5955 12.235C23.7555 13.5655 23.9367 15.0735 22.9227 16.5877C22.8862 16.6423 22.8368 16.6869 22.7789 16.7178C22.721 16.7487 22.6563 16.7648 22.5907 16.7647Z" fill="white"/>
</svg>
