<svg width="30" height="26" viewBox="0 0 30 26" fill="none" xmlns="http://www.w3.org/2000/svg">
<path d="M10.3849 0.00251527H3.4639C3.008 -0.00556252 2.55528 0.0798249 2.13364 0.253414C1.71201 0.427004 1.33039 0.685116 1.01233 1.01184C0.685062 1.32978 0.426432 1.71143 0.25241 2.13323C0.0783874 2.55502 -0.00733439 3.00801 0.000536476 3.46423V10.3868C-0.00763905 10.8427 0.0777043 11.2955 0.2513 11.7171C0.424895 12.1388 0.683059 12.5204 1.00986 12.8384C1.32824 13.1654 1.71026 13.4236 2.13233 13.5972C2.55441 13.7708 3.00759 13.8561 3.4639 13.8477H7.50449C7.7322 13.8466 7.95787 13.8907 8.16846 13.9773C8.37906 14.0639 8.57039 14.1915 8.73141 14.3525C8.89243 14.5135 9.01994 14.7048 9.10658 14.9154C9.19322 15.126 9.23726 15.3517 9.23617 15.5794V16.1566C9.24562 16.764 9.1305 17.367 8.8979 17.9282C8.66531 18.4894 8.32018 18.997 7.88381 19.4196C7.46063 19.8558 6.95254 20.2006 6.3909 20.4328C5.82927 20.665 5.226 20.7796 4.61835 20.7695H3.4639C3.3124 20.7683 3.16225 20.7981 3.0227 20.8571C2.88315 20.9161 2.75716 21.003 2.65248 21.1125C2.54306 21.2172 2.45625 21.3433 2.39739 21.4828C2.33854 21.6224 2.30889 21.7725 2.31027 21.9239V24.2329C2.30893 24.3843 2.33861 24.5344 2.39746 24.674C2.45631 24.8135 2.5431 24.9395 2.65248 25.0443C2.75716 25.1538 2.88315 25.2407 3.0227 25.2997C3.16225 25.3587 3.3124 25.3885 3.4639 25.3873H4.61835C5.8487 25.3911 7.06675 25.1425 8.19716 24.6567C9.29712 24.1939 10.2977 23.5237 11.1443 22.6826C11.9831 21.8349 12.6511 20.8338 13.1118 19.7338C13.5974 18.6036 13.8457 17.3858 13.8416 16.1558V3.4634C13.8438 3.00798 13.7557 2.55663 13.5824 2.13545C13.4092 1.71427 13.1541 1.3316 12.8321 1.00957C12.5101 0.687527 12.1274 0.432501 11.7062 0.259224C11.285 0.0859479 10.8337 -0.00214469 10.3783 3.96481e-05L10.3849 0.00251527Z" fill="#2E8B57"/>
<path d="M28.9889 1.01181C28.6709 0.685044 28.2893 0.426906 27.8677 0.253313C27.446 0.079721 26.9933 -0.00564328 26.5374 0.00248336H19.6148C19.1593 0.000188823 18.7079 0.0882041 18.2867 0.261442C17.8655 0.434679 17.4827 0.6897 17.1607 1.01176C16.8386 1.33382 16.5836 1.71653 16.4104 2.13776C16.2371 2.55899 16.1491 3.01039 16.1514 3.46585V10.3884C16.1491 10.8439 16.2371 11.2953 16.4104 11.7165C16.5836 12.1378 16.8386 12.5205 17.1607 12.8425C17.4827 13.1646 17.8655 13.4196 18.2867 13.5928C18.7079 13.7661 19.1593 13.8541 19.6148 13.8518H23.6554C23.8831 13.8507 24.1088 13.8948 24.3194 13.9814C24.5299 14.068 24.7213 14.1956 24.8823 14.3566C25.0433 14.5176 25.1708 14.7089 25.2575 14.9195C25.3441 15.1301 25.3881 15.3558 25.3871 15.5835V16.1607C25.3871 17.3854 24.9005 18.56 24.0345 19.426C23.1685 20.292 21.994 20.7785 20.7692 20.7785H19.6148C19.3099 20.7826 19.0186 20.9055 18.8029 21.1211C18.5873 21.3368 18.4644 21.6281 18.4603 21.933V24.2419C18.4644 24.5468 18.5873 24.8381 18.8029 25.0537C19.0186 25.2694 19.3099 25.3923 19.6148 25.3964H20.7692C21.9996 25.4001 23.2176 25.1515 24.348 24.6657C26.5731 23.7382 28.3418 21.9695 29.2693 19.7445C29.7548 18.6143 30.0032 17.3965 29.9991 16.1665V3.46337C30.0072 3.00739 29.9218 2.55459 29.748 2.13293C29.5743 1.71127 29.3159 1.32971 28.9889 1.01181Z" fill="#2E8B57"/>
</svg>
