<svg width="36" height="32" viewBox="0 0 36 32" fill="none" xmlns="http://www.w3.org/2000/svg">
<path fill-rule="evenodd" clip-rule="evenodd" d="M30.1145 2.26717L30.8732 3.35478C31.0725 3.64183 31.0227 4.05327 30.759 4.27016L29.9533 4.93676C30.0998 5.36096 30.1936 5.81386 30.2316 6.27634L31.1486 6.41348C31.4768 6.46133 31.7053 6.79303 31.6613 7.15025L31.4914 8.50578C31.4475 8.863 31.1428 9.11497 30.8147 9.06394L29.8127 8.91403C29.634 9.33823 29.4055 9.72735 29.1359 10.075L29.6984 10.8787C29.8977 11.1658 29.8449 11.5772 29.5813 11.7941L28.5822 12.6202C28.3186 12.8371 27.9406 12.7797 27.7414 12.4958L27.1291 11.6187C26.7365 11.7782 26.3234 11.8802 25.8957 11.9217L25.7697 12.92C25.7258 13.2772 25.4211 13.526 25.093 13.4782L23.8479 13.2932C23.5197 13.2453 23.2912 12.9136 23.3352 12.5564L23.4729 11.4656C23.0861 11.2711 22.7258 11.0223 22.4064 10.732L21.6682 11.3412C21.4045 11.5581 21.0266 11.5039 20.8273 11.2168L20.0686 10.1292C19.8693 9.84217 19.9191 9.43073 20.1828 9.21384L20.9885 8.54724C20.842 8.11985 20.7482 7.67014 20.7102 7.20766L19.7932 7.07051C19.465 7.02267 19.2336 6.69097 19.2805 6.33375L19.4504 4.97822C19.4973 4.621 19.799 4.37222 20.1271 4.42006L21.1291 4.56997C21.3078 4.14896 21.5363 3.75665 21.8029 3.409L21.2434 2.60525C21.0441 2.32139 21.0939 1.90995 21.3576 1.69306L22.3566 0.866987C22.6203 0.650102 22.9982 0.704324 23.1975 0.991376L23.8098 1.86848C24.1994 1.70901 24.6154 1.60694 25.0402 1.56548L25.1662 0.567176C25.2102 0.209955 25.5148 -0.0420135 25.843 0.00582866L27.0881 0.190818C27.4162 0.23866 27.6477 0.570366 27.6008 0.927587L27.4631 2.01839C27.8527 2.21295 28.2102 2.46172 28.5324 2.75516L29.2707 2.14597C29.5344 1.92589 29.9123 1.98011 30.1145 2.26717ZM8.69258 21.4072V16.1446H11.1828C11.6457 16.1446 11.9973 16.186 12.2404 16.2753C12.4836 16.3615 12.6828 16.5209 12.8293 16.7538C12.9787 16.9898 13.0549 17.2736 13.0549 17.6085C13.0549 17.8988 12.9963 18.1539 12.882 18.3644C12.7678 18.5781 12.6096 18.7504 12.4104 18.8811C12.2844 18.9641 12.1086 19.0342 11.8859 19.0885C12.0646 19.1554 12.1936 19.216 12.2727 19.283C12.3283 19.3277 12.4074 19.4202 12.51 19.5605C12.6125 19.7008 12.6828 19.8125 12.718 19.889L13.4445 21.4104H11.757L10.9602 19.8061C10.8576 19.5988 10.7697 19.4616 10.6906 19.401C10.5822 19.3213 10.4592 19.2798 10.3244 19.2798H10.1926V21.4104H8.69258V21.4072ZM13.9602 30.5706H11.1711L10.7697 31.9994H8.25605L11.2531 23.3273H13.9484L16.9338 31.9994H14.3557L13.9602 30.5706ZM13.4387 28.692L12.5686 25.5727L11.6955 28.692H13.4387ZM17.5139 23.3273H21.6096C22.5031 23.3273 23.1711 23.5569 23.6135 24.0194C24.0559 24.4819 24.2785 25.1421 24.2785 25.9937C24.2785 26.8708 24.0354 27.5565 23.552 28.0509C23.0686 28.5452 22.3273 28.7908 21.3342 28.7908H19.9836V31.9994H17.5139V23.3273ZM19.9836 27.0334H20.59C21.0676 27.0334 21.4045 26.9441 21.5979 26.7623C21.7912 26.5837 21.8879 26.3509 21.8879 26.0734C21.8879 25.8023 21.8029 25.5695 21.6359 25.3813C21.4689 25.1931 21.1525 25.0974 20.6896 25.0974H19.9836V27.0334ZM25.2746 23.3273H27.7443V31.9994H25.2746V23.3273ZM10.1926 18.2815H10.8225C10.8898 18.2815 11.0217 18.256 11.218 18.2082C11.3176 18.1858 11.3996 18.1316 11.4611 18.0423C11.5256 17.953 11.5549 17.8509 11.5549 17.7361C11.5549 17.5671 11.5051 17.4331 11.4055 17.3438C11.3059 17.2513 11.1213 17.2067 10.8488 17.2067H10.1926V18.2815ZM13.7316 16.1446H17.7307V17.2673H15.2316V18.1061H17.549V19.1778H15.2316V20.2143H17.8039V21.404H13.7316V16.1446ZM18.1584 19.6658L19.5764 19.5701C19.6057 19.822 19.6701 20.0102 19.7639 20.141C19.9191 20.3515 20.1389 20.4599 20.423 20.4599C20.634 20.4599 20.801 20.4057 20.9152 20.2973C21.0295 20.1888 21.0881 20.0612 21.0881 19.9177C21.0881 19.7806 21.0324 19.6594 20.924 19.5509C20.8156 19.4425 20.5607 19.3436 20.1594 19.2447C19.5061 19.0853 19.0402 18.8716 18.759 18.6068C18.4777 18.3421 18.3371 18.004 18.3371 17.5926C18.3371 17.3215 18.4104 17.0663 18.5539 16.8271C18.6975 16.5879 18.9143 16.3965 19.2043 16.2594C19.4943 16.1222 19.8898 16.0553 20.3938 16.0553C21.0119 16.0553 21.4807 16.1797 21.8059 16.4316C22.1281 16.6836 22.3215 17.0791 22.383 17.6277L20.9797 17.7202C20.9416 17.481 20.8625 17.3055 20.7453 17.2003C20.6252 17.0918 20.4582 17.0376 20.2502 17.0376C20.0773 17.0376 19.9455 17.0791 19.8576 17.1588C19.7697 17.2386 19.7258 17.3374 19.7258 17.4523C19.7258 17.5352 19.7639 17.6085 19.8342 17.6787C19.9045 17.7457 20.0686 17.8127 20.3322 17.8733C20.9855 18.0264 21.4543 18.1826 21.7355 18.3389C22.0168 18.4952 22.2248 18.6898 22.3508 18.9226C22.4797 19.1522 22.5441 19.4138 22.5441 19.7008C22.5441 20.0389 22.4592 20.3483 22.2863 20.6322C22.1164 20.916 21.8762 21.1329 21.5686 21.2796C21.2609 21.4263 20.8742 21.4997 20.4055 21.4997C19.5852 21.4997 19.0139 21.3275 18.6975 20.983C18.3811 20.6322 18.2023 20.1952 18.1584 19.6658ZM22.7609 16.1446H27.3049V17.4459H25.7814V21.4072H24.2873V17.4459H22.7609V16.1446ZM17.7336 3.65459C17.1975 3.60994 16.6555 3.61631 16.1193 3.67372C14.4699 3.84596 12.8674 4.4998 11.5432 5.6193C10.0109 6.91104 8.84785 8.84386 8.39961 11.405L8.25899 12.2056L7.52656 12.3459C6.80879 12.4831 6.16719 12.6712 5.60469 12.9104C5.05977 13.1401 4.57344 13.4239 4.14863 13.7588C3.80879 14.0268 3.51582 14.3266 3.2668 14.6519C2.49629 15.6566 2.13887 16.9164 2.14766 18.1922C2.15645 19.4871 2.54316 20.7948 3.25801 21.8697C3.52461 22.2684 3.83223 22.6352 4.18379 22.9541C4.54121 23.2762 4.94258 23.5442 5.39375 23.7451C5.64863 23.8599 5.92109 23.9556 6.20527 24.0321V26.4211C5.61934 26.3062 5.08027 26.134 4.57637 25.9076C3.91133 25.6077 3.32246 25.2218 2.80391 24.7498C2.31172 24.3032 1.88105 23.7961 1.51484 23.2443C0.539258 21.7772 0.011914 19.9847 0.000195216 18.1986C-0.0115235 16.3934 0.504101 14.5977 1.61738 13.1433C1.97773 12.6712 2.40254 12.2375 2.88887 11.8547C3.4543 11.4082 4.10176 11.0318 4.83418 10.7225C5.33809 10.5088 5.87715 10.3302 6.44551 10.1866C7.09004 7.39903 8.46406 5.25251 10.2307 3.76303C11.883 2.36923 13.8723 1.55591 15.9201 1.34222C16.9953 1.23059 18.0852 1.28162 19.1516 1.4985C19.1281 1.60376 19.1076 1.70901 19.0959 1.81745L19.093 1.83659C19.0725 2.01839 19.0637 2.20019 19.0725 2.38518C18.8469 2.48086 18.6359 2.61163 18.4455 2.7711L18.4367 2.77748C18.1525 3.01031 17.9123 3.31012 17.7336 3.65459ZM33.2346 9.77838C33.3986 9.94104 33.5568 10.1101 33.7121 10.2919C34.0256 10.6587 34.3215 11.0733 34.5998 11.5358C35.5373 13.105 36.0178 15.2005 35.9973 17.2513C35.9768 19.2639 35.4787 21.2669 34.4592 22.7404C33.7941 23.7004 32.9416 24.485 31.9191 25.107C31.2189 25.5344 30.4309 25.8884 29.5725 26.1755V23.7036C30.0354 23.5154 30.466 23.3049 30.8615 23.0657C31.632 22.5969 32.2619 22.026 32.7336 21.3402C33.466 20.2781 33.8264 18.7759 33.841 17.2354C33.8586 15.6183 33.4953 13.9949 32.7893 12.8148C32.5871 12.4735 32.3645 12.1673 32.1301 11.893C32.0393 11.7877 31.9484 11.6889 31.8547 11.5932C31.8693 11.4337 31.8752 11.2711 31.8664 11.1084C32.092 11.0127 32.3029 10.8819 32.4934 10.7225L32.5022 10.7161C32.8039 10.4641 33.0559 10.1452 33.2346 9.77838ZM25.8049 4.08198C27.1555 4.28291 28.0988 5.63844 27.9143 7.10879C27.7297 8.57914 26.4846 9.60934 25.134 9.4084C23.7834 9.20746 22.8371 7.85194 23.0246 6.38159C23.2121 4.91124 24.4543 3.88104 25.8049 4.08198Z" fill="black"/>
</svg>
