<svg width="15" height="13" viewBox="0 0 15 13" fill="none" xmlns="http://www.w3.org/2000/svg">
<path d="M15 1.42707C14.4375 1.668 13.8562 1.8348 13.2375 1.90894C13.875 1.53827 14.3625 0.945201 14.5875 0.2224C13.9875 0.574534 13.3313 0.815468 12.6375 0.963735C12.075 0.370667 11.2688 0 10.3875 0C8.68125 0 7.3125 1.37147 7.3125 3.03947C7.3125 3.2804 7.33125 3.5028 7.3875 3.7252C4.8375 3.614 2.5875 2.3908 1.06875 0.556001C-0.0187499 2.48347 1.2 4.07734 2.00625 4.61481C1.51875 4.61481 1.03125 4.46654 0.61875 4.24414C0.61875 5.74534 1.6875 6.98708 3.075 7.26508C2.775 7.35774 2.1 7.41334 1.6875 7.32068C2.08125 8.52535 3.225 9.41495 4.55625 9.43348C3.50625 10.2489 1.96875 10.8976 0 10.6937C1.36875 11.5648 2.98125 12.0652 4.725 12.0652C10.3875 12.0652 13.4625 7.43188 13.4625 3.42867C13.4625 3.29894 13.4625 3.1692 13.4437 3.03947C14.0812 2.57614 14.6063 2.03867 15 1.42707V1.42707Z" fill="#FFFCF2"/>
</svg>
