<svg width="24" height="24" viewBox="0 0 24 24" fill="none" xmlns="http://www.w3.org/2000/svg">
<path d="M23.25 24H6.75C6.55109 24 6.36032 23.921 6.21967 23.7803C6.07902 23.6397 6 23.4489 6 23.25V10.5C6 10.3011 6.07902 10.1103 6.21967 9.96967C6.36032 9.82902 6.55109 9.75 6.75 9.75H23.25C23.4489 9.75 23.6397 9.82902 23.7803 9.96967C23.921 10.1103 24 10.3011 24 10.5V23.25C24 23.4489 23.921 23.6397 23.7803 23.7803C23.6397 23.921 23.4489 24 23.25 24ZM7.5 22.5H22.5V11.25H7.5V22.5Z" fill="white" fill-opacity="0.9"/>
<path d="M6.75 18H3C2.20435 18 1.44129 17.6839 0.87868 17.1213C0.316071 16.5587 0 15.7956 0 15V3C0 2.20435 0.316071 1.44129 0.87868 0.87868C1.44129 0.316071 2.20435 0 3 0L10.5 0C11.2956 0 12.0587 0.316071 12.6213 0.87868C13.1839 1.44129 13.5 2.20435 13.5 3V7.5C13.5 7.69891 13.421 7.88968 13.2803 8.03033C13.1397 8.17098 12.9489 8.25 12.75 8.25C12.5511 8.25 12.3603 8.17098 12.2197 8.03033C12.079 7.88968 12 7.69891 12 7.5V3C12 2.60218 11.842 2.22064 11.5607 1.93934C11.2794 1.65804 10.8978 1.5 10.5 1.5H3C2.60218 1.5 2.22064 1.65804 1.93934 1.93934C1.65804 2.22064 1.5 2.60218 1.5 3V15C1.5 15.3978 1.65804 15.7794 1.93934 16.0607C2.22064 16.342 2.60218 16.5 3 16.5H6.75C6.94891 16.5 7.13968 16.579 7.28033 16.7197C7.42098 16.8603 7.5 17.0511 7.5 17.25C7.5 17.4489 7.42098 17.6397 7.28033 17.7803C7.13968 17.921 6.94891 18 6.75 18Z" fill="white" fill-opacity="0.9"/>
<path d="M5.25 8.25C4.65326 8.25 4.08097 8.01295 3.65901 7.59099C3.23705 7.16903 3 6.59674 3 6V3.75C3 3.55109 3.07902 3.36032 3.21967 3.21967C3.36032 3.07902 3.55109 3 3.75 3C3.94891 3 4.13968 3.07902 4.28033 3.21967C4.42098 3.36032 4.5 3.55109 4.5 3.75V6C4.5 6.19891 4.57902 6.38968 4.71967 6.53033C4.86032 6.67098 5.05109 6.75 5.25 6.75C5.44891 6.75 5.63968 6.67098 5.78033 6.53033C5.92098 6.38968 6 6.19891 6 6V3.75C6 3.55109 6.07902 3.36032 6.21967 3.21967C6.36032 3.07902 6.55109 3 6.75 3C6.94891 3 7.13968 3.07902 7.28033 3.21967C7.42098 3.36032 7.5 3.55109 7.5 3.75V6C7.5 6.59674 7.26295 7.16903 6.84099 7.59099C6.41903 8.01295 5.84674 8.25 5.25 8.25Z" fill="white" fill-opacity="0.9"/>
<path d="M11.25 18C10.6533 18 10.081 17.7629 9.65901 17.341C9.23705 16.919 9 16.3467 9 15.75V13.5C9 13.3011 9.07902 13.1103 9.21967 12.9697C9.36032 12.829 9.55109 12.75 9.75 12.75C9.94891 12.75 10.1397 12.829 10.2803 12.9697C10.421 13.1103 10.5 13.3011 10.5 13.5V15.75C10.5 15.9489 10.579 16.1397 10.7197 16.2803C10.8603 16.421 11.0511 16.5 11.25 16.5C11.4489 16.5 11.6397 16.421 11.7803 16.2803C11.921 16.1397 12 15.9489 12 15.75V13.5C12 13.3011 12.079 13.1103 12.2197 12.9697C12.3603 12.829 12.5511 12.75 12.75 12.75C12.9489 12.75 13.1397 12.829 13.2803 12.9697C13.421 13.1103 13.5 13.3011 13.5 13.5V15.75C13.5 16.3467 13.2629 16.919 12.841 17.341C12.419 17.7629 11.8467 18 11.25 18Z" fill="white"/>
<path d="M9.75 8.25C9.55109 8.25 9.36032 8.17098 9.21967 8.03033C9.07902 7.88968 9 7.69891 9 7.5V3.75C9 3.55109 9.07902 3.36032 9.21967 3.21967C9.36032 3.07902 9.55109 3 9.75 3C9.94891 3 10.1397 3.07902 10.2803 3.21967C10.421 3.36032 10.5 3.55109 10.5 3.75V7.5C10.5 7.69891 10.421 7.88968 10.2803 8.03033C10.1397 8.17098 9.94891 8.25 9.75 8.25Z" fill="white" fill-opacity="0.9"/>
<path d="M18 18C17.8874 17.9995 17.7763 17.9736 17.675 17.9242C17.5737 17.8749 17.4849 17.8034 17.415 17.715L14.415 13.965C14.311 13.8085 14.2695 13.6187 14.2988 13.4331C14.328 13.2475 14.4258 13.0796 14.5729 12.9627C14.72 12.8458 14.9056 12.7883 15.0931 12.8017C15.2805 12.8151 15.456 12.8983 15.585 13.035L18.585 16.785C18.6722 16.8953 18.7266 17.0279 18.742 17.1677C18.7575 17.3074 18.7333 17.4487 18.6723 17.5754C18.6113 17.702 18.5159 17.809 18.3971 17.8841C18.2782 17.9592 18.1406 17.9993 18 18Z" fill="white"/>
<path d="M15 18C14.8594 17.9994 14.7218 17.9592 14.6029 17.8841C14.4841 17.809 14.3887 17.7021 14.3277 17.5754C14.2667 17.4487 14.2425 17.3074 14.258 17.1677C14.2734 17.0279 14.3278 16.8953 14.415 16.785L17.415 13.035C17.4725 12.9485 17.5473 12.8749 17.6347 12.8189C17.7222 12.7628 17.8203 12.7255 17.9229 12.7093C18.0255 12.6932 18.1303 12.6985 18.2307 12.725C18.3311 12.7514 18.425 12.7985 18.5063 12.8631C18.5876 12.9277 18.6546 13.0085 18.703 13.1004C18.7515 13.1922 18.7803 13.2932 18.7877 13.3968C18.7951 13.5003 18.7809 13.6043 18.746 13.7022C18.7111 13.8 18.6563 13.8895 18.585 13.965L15.585 17.715C15.5152 17.8034 15.4263 17.8749 15.325 17.9243C15.2237 17.9736 15.1127 17.9995 15 18Z" fill="white"/>
<path d="M11.25 21H9.75C9.55109 21 9.36032 20.921 9.21967 20.7803C9.07902 20.6397 9 20.4489 9 20.25C9 20.0511 9.07902 19.8603 9.21967 19.7197C9.36032 19.579 9.55109 19.5 9.75 19.5H11.25C11.4489 19.5 11.6397 19.579 11.7803 19.7197C11.921 19.8603 12 20.0511 12 20.25C12 20.4489 11.921 20.6397 11.7803 20.7803C11.6397 20.921 11.4489 21 11.25 21Z" fill="white" fill-opacity="0.9"/>
<path d="M20.25 21H14.25C14.0511 21 13.8603 20.921 13.7197 20.7803C13.579 20.6397 13.5 20.4489 13.5 20.25C13.5 20.0511 13.579 19.8603 13.7197 19.7197C13.8603 19.579 14.0511 19.5 14.25 19.5H20.25C20.4489 19.5 20.6397 19.579 20.7803 19.7197C20.921 19.8603 21 20.0511 21 20.25C21 20.4489 20.921 20.6397 20.7803 20.7803C20.6397 20.921 20.4489 21 20.25 21Z" fill="white" fill-opacity="0.9"/>
</svg>
