<svg width="24" height="24" viewBox="0 0 24 24" fill="none" xmlns="http://www.w3.org/2000/svg">
<g clip-path="url(#clip0_59_787)">
<path d="M5.06175 4.21875C5.37241 4.21875 5.62425 3.96691 5.62425 3.65625C5.62425 3.34559 5.37241 3.09375 5.06175 3.09375C4.75109 3.09375 4.49925 3.34559 4.49925 3.65625C4.49925 3.96691 4.75109 4.21875 5.06175 4.21875Z" fill="white" fill-opacity="0.9"/>
<path d="M7.11975 4.21875C7.43041 4.21875 7.68225 3.96691 7.68225 3.65625C7.68225 3.34559 7.43041 3.09375 7.11975 3.09375C6.80909 3.09375 6.55725 3.34559 6.55725 3.65625C6.55725 3.96691 6.80909 4.21875 7.11975 4.21875Z" fill="white" fill-opacity="0.9"/>
<path d="M8.99775 4.21875C9.30841 4.21875 9.56025 3.96691 9.56025 3.65625C9.56025 3.34559 9.30841 3.09375 8.99775 3.09375C8.68709 3.09375 8.43525 3.34559 8.43525 3.65625C8.43525 3.96691 8.68709 4.21875 8.99775 4.21875Z" fill="white" fill-opacity="0.9"/>
<path d="M15.891 14.5388C16.2017 14.5388 16.4535 14.287 16.4535 13.9763C16.4535 13.6657 16.2017 13.4138 15.891 13.4138C15.5803 13.4138 15.3285 13.6657 15.3285 13.9763C15.3285 14.287 15.5803 14.5388 15.891 14.5388Z" fill="white"/>
<path d="M1.49925 9.0675C1.18875 9.0675 0.936749 8.8155 0.936749 8.505V4.5C0.936749 2.53275 2.532 0.9375 4.49925 0.9375H13.6882C13.9987 0.9375 14.2507 1.1895 14.2507 1.5C14.2507 1.8105 13.9987 2.0625 13.6882 2.0625H4.49925C3.153 2.0625 2.06175 3.15375 2.06175 4.5V8.505C2.06175 8.8155 1.80975 9.0675 1.49925 9.0675Z" fill="white" fill-opacity="0.9"/>
<path d="M19.4992 23.0625H4.49925C2.532 23.0625 0.936749 21.4672 0.936749 19.5V12.5625C0.936749 12.252 1.18875 12 1.49925 12C1.80975 12 2.06175 12.252 2.06175 12.5625V19.5C2.06175 20.8462 3.153 21.9375 4.49925 21.9375H19.4992C20.8455 21.9375 21.9367 20.8462 21.9367 19.5V13.986C21.9367 13.6755 22.1887 13.4235 22.4992 13.4235C22.8097 13.4235 23.0617 13.6755 23.0617 13.986V19.5C23.0617 21.4672 21.4665 23.0625 19.4992 23.0625Z" fill="white" fill-opacity="0.9"/>
<path d="M12.1807 6.56323H1.49925V5.43823H12.1807C12.4913 5.43823 12.7432 5.69023 12.7432 6.00073C12.7432 6.31123 12.4913 6.56323 12.1807 6.56323Z" fill="white" fill-opacity="0.9"/>
<path d="M20.9993 11.8125H16.4993C15.3615 11.8125 14.4368 10.8878 14.4368 9.75V6C14.4368 4.86225 15.3615 3.9375 16.4993 3.9375H20.9993C22.137 3.9375 23.0618 4.86225 23.0618 6V9.75C23.0618 10.8878 22.137 11.8125 20.9993 11.8125ZM16.4993 5.0625C15.9825 5.0625 15.5618 5.48325 15.5618 6V9.75C15.5618 10.2667 15.9825 10.6875 16.4993 10.6875H20.9993C21.516 10.6875 21.9368 10.2667 21.9368 9.75V6C21.9368 5.48325 21.516 5.0625 20.9993 5.0625H16.4993Z" fill="white"/>
<path d="M19.3118 5.0625H17.2493C16.1115 5.0625 15.1868 4.13775 15.1868 3C15.1868 1.86225 16.1115 0.9375 17.2493 0.9375C18.387 0.9375 19.3118 1.86225 19.3118 3V5.0625ZM17.2493 2.0625C16.7325 2.0625 16.3118 2.48325 16.3118 3C16.3118 3.51675 16.7325 3.9375 17.2493 3.9375H18.1868V3C18.1868 2.48325 17.766 2.0625 17.2493 2.0625Z" fill="white"/>
<path d="M20.2493 5.0625H18.1868V3C18.1868 1.86225 19.1115 0.9375 20.2493 0.9375C21.387 0.9375 22.3118 1.86225 22.3118 3C22.3118 4.13775 21.387 5.0625 20.2493 5.0625ZM19.3118 3.9375H20.2493C20.766 3.9375 21.1868 3.51675 21.1868 3C21.1868 2.48325 20.766 2.0625 20.2493 2.0625C19.7325 2.0625 19.3118 2.48325 19.3118 3V3.9375Z" fill="white"/>
<path d="M18.1868 4.5H19.3118V11.25H18.1868V4.5Z" fill="white"/>
<path d="M6.02325 20.8628C4.8855 20.8628 3.96075 19.938 3.96075 18.8003C3.96075 17.6625 4.8855 16.7378 6.02325 16.7378C7.161 16.7378 8.08575 17.6625 8.08575 18.8003C8.08575 19.938 7.161 20.8628 6.02325 20.8628ZM6.02325 17.8628C5.5065 17.8628 5.08575 18.2835 5.08575 18.8003C5.08575 19.317 5.5065 19.7378 6.02325 19.7378C6.54 19.7378 6.96075 19.317 6.96075 18.8003C6.96075 18.2835 6.54 17.8628 6.02325 17.8628Z" fill="white" fill-opacity="0.9"/>
<path d="M11.3647 20.8628C10.227 20.8628 9.30225 19.938 9.30225 18.8003C9.30225 17.6625 10.227 16.7378 11.3647 16.7378C12.5025 16.7378 13.4272 17.6625 13.4272 18.8003C13.4272 19.938 12.5025 20.8628 11.3647 20.8628ZM11.3647 17.8628C10.848 17.8628 10.4272 18.2835 10.4272 18.8003C10.4272 19.317 10.848 19.7378 11.3647 19.7378C11.8815 19.7378 12.3022 19.317 12.3022 18.8003C12.3022 18.2835 11.8815 17.8628 11.3647 17.8628Z" fill="white" fill-opacity="0.9"/>
<path d="M19.2615 15.6833H15.8872C15.5766 15.6833 15.3247 15.9352 15.3247 16.2458C15.3247 16.5565 15.5766 16.8083 15.8872 16.8083H19.2615C19.5722 16.8083 19.824 16.5565 19.824 16.2458C19.824 15.9352 19.5722 15.6833 19.2615 15.6833Z" fill="white" fill-opacity="0.9"/>
<path d="M19.2615 17.9529H15.8872C15.5766 17.9529 15.3247 18.2047 15.3247 18.5154C15.3247 18.826 15.5766 19.0779 15.8872 19.0779H19.2615C19.5722 19.0779 19.824 18.826 19.824 18.5154C19.824 18.2047 19.5722 17.9529 19.2615 17.9529Z" fill="white" fill-opacity="0.9"/>
<path d="M11.9175 17.8628H4.989C4.32 17.8628 3.75825 17.3603 3.68475 16.6958L3.0645 11.1218H1.49925C1.18875 11.1218 0.936749 10.8698 0.936749 10.5593C0.936749 10.2488 1.18875 9.99683 1.49925 9.99683H3.714C3.9165 9.99683 4.08675 10.1491 4.10925 10.3501L4.236 11.4893H12.453C12.834 11.4893 13.1955 11.6543 13.4445 11.9416C13.6942 12.2296 13.806 12.6106 13.7527 12.9878L13.2165 16.7363C13.1242 17.3828 12.57 17.8628 11.9175 17.8628ZM4.36125 12.6143L4.80225 16.5713C4.81275 16.6666 4.893 16.7378 4.98825 16.7378H11.9175C12.0105 16.7378 12.09 16.6688 12.1027 16.5773L12.639 12.8288C12.6495 12.7546 12.6157 12.7036 12.5947 12.6796C12.5737 12.6556 12.528 12.6151 12.453 12.6151H4.362L4.36125 12.6143Z" fill="white" fill-opacity="0.9"/>
</g>
<defs>
<clipPath id="clip0_59_787">
<rect width="24" height="24" fill="white"/>
</clipPath>
</defs>
</svg>
